<?xml version="1.0" standalone="no"?><!DOCTYPE svg PUBLIC "-//W3C//DTD SVG 1.1//EN" "http://www.w3.org/Graphics/SVG/1.1/DTD/svg11.dtd"><svg height="1024" node-id="1" sillyvg="true" template-height="1024" template-width="1024" version="1.1" viewBox="0 0 1024 1024" width="1024" xmlns="http://www.w3.org/2000/svg" xmlns:xlink="http://www.w3.org/1999/xlink"><defs node-id="93"><clipPath id="clip0_2_5915" node-id="90"><path d="M 0.00 0.00 L 1024.00 0.00 L 1024.00 1024.00 L 0.00 1024.00 Z" fill="#000000" fill-rule="nonzero" node-id="96" stroke="none" target-height="1024" target-width="1024" target-x="0" target-y="0"></path></clipPath></defs><g clip-path="url(#clip0_2_5915)" id="sillyvg_g_0" node-id="100"><path d="M 0.00 0.00 L 1024.00 0.00 L 1024.00 1024.00 L 0.00 1024.00 Z" fill="#ffffff" fill-rule="nonzero" node-id="102" stroke="none" target-height="1024" target-width="1024" target-x="0" target-y="0"></path><path d="M 0.00 0.00 L 1024.00 0.00 L 1024.00 1024.00 L 0.00 1024.00 Z" fill="#ffffff" fill-rule="nonzero" node-id="104" stroke="none" target-height="1024" target-width="1024" target-x="0" target-y="0"></path><path d="M 899.69 432.09 C 895.78 430.41 891.80 429.74 887.75 430.07 C 885.30 430.26 885.21 430.81 887.47 431.72 C 890.03 432.73 893.13 433.29 896.76 433.42 C 917.86 457.26 938.50 466.96 964.26 480.05 C 964.59 480.21 964.88 480.43 965.12 480.71 C 965.36 480.98 965.54 481.30 965.66 481.64 C 965.77 481.99 965.82 482.35 965.79 482.72 C 965.76 483.08 965.66 483.43 965.50 483.76 C 957.35 500.23 924.08 510.57 908.75 513.60 C 906.00 514.11 905.96 514.80 908.61 515.65 L 947.51 528.15 C 949.13 528.67 949.68 529.74 949.16 531.35 C 933.45 582.52 908.84 628.66 875.34 669.79 C 876.29 668.39 874.58 667.67 870.22 667.64 L 876.35 659.03 C 876.51 658.84 876.58 658.58 876.55 658.33 C 876.52 658.07 876.39 657.84 876.19 657.68 C 875.99 657.53 875.74 657.46 875.48 657.49 C 875.23 657.52 875.00 657.64 874.84 657.85 C 856.44 679.32 832.20 691.35 802.12 693.91 C 810.48 689.70 818.85 685.46 827.24 681.19 C 889.03 649.79 916.90 597.07 940.24 535.06 C 940.60 534.11 940.30 533.47 939.32 533.14 L 864.50 507.60 C 864.07 507.45 863.87 507.14 863.90 506.69 C 863.93 506.17 864.16 505.79 864.59 505.54 C 864.89 505.36 865.30 505.34 865.82 505.50 C 874.98 507.97 882.62 509.57 892.32 507.46 C 906.14 504.49 944.08 499.55 952.04 488.52 L 956.99 485.73 C 958.57 484.81 958.47 484.23 956.67 483.99 L 948.70 482.80 C 914.56 472.18 887.56 442.48 864.09 413.83 C 885.26 422.31 906.94 425.50 929.12 423.39 C 930.95 423.24 931.57 422.30 930.99 420.56 C 928.52 412.99 924.77 406.49 919.74 401.06 C 911.10 376.84 900.77 354.30 888.75 333.47 C 861.51 284.47 825.25 242.35 779.97 207.11 C 776.31 204.27 776.19 201.30 779.60 198.19 L 883.76 103.00 L 857.31 135.99 C 838.46 161.01 817.47 184.82 794.34 207.43 C 792.97 208.74 792.97 210.07 794.34 211.41 L 839.19 254.48 L 885.32 315.53 C 885.96 316.38 886.36 316.29 886.51 315.25 C 889.47 294.02 894.21 273.13 900.74 252.60 C 904.10 242.04 906.16 225.52 906.92 203.04 C 908.81 173.66 906.46 146.73 899.87 122.26 C 897.77 110.27 892.87 102.17 885.18 97.96 C 854.70 75.99 707.62 118.56 668.62 127.71 C 667.16 128.04 666.92 127.63 667.89 126.47 C 672.88 120.61 682.86 120.48 689.77 117.73 C 692.02 116.82 692.09 115.80 689.95 114.67 C 564.92 48.86 390.70 37.69 269.92 121.99 C 253.66 133.34 241.08 142.00 232.17 147.98 C 231.55 148.41 230.83 148.65 230.08 148.67 C 229.34 148.69 228.60 148.50 227.96 148.12 C 201.14 132.56 110.39 87.53 84.03 119.47 C 74.97 169.29 76.00 219.33 87.14 269.58 C 87.51 271.26 87.41 272.90 86.86 274.52 L 83.57 284.54 C 83.40 284.91 83.38 285.32 83.52 285.70 C 83.66 286.08 83.94 286.39 84.30 286.56 C 84.67 286.73 85.08 286.75 85.46 286.61 C 85.84 286.47 86.15 286.19 86.32 285.82 L 94.23 272.92 L 135.56 226.56 C 137.03 224.92 137.94 222.85 138.18 220.66 C 138.42 218.47 137.97 216.26 136.89 214.34 C 127.55 197.64 115.61 179.38 110.02 161.25 C 108.34 155.79 106.36 150.70 104.07 145.97 C 100.56 141.36 99.10 137.04 99.68 133.02 C 121.46 157.94 139.94 185.05 155.10 214.34 C 155.83 215.78 155.59 217.03 154.37 218.09 C 94.55 270.13 67.55 325.50 40.32 394.47 C 40.27 394.66 40.28 394.87 40.35 395.06 C 40.42 395.24 40.56 395.40 40.73 395.50 C 40.90 395.61 41.10 395.65 41.30 395.63 C 41.50 395.61 41.69 395.52 41.83 395.39 C 61.11 373.24 84.76 354.69 112.77 339.74 C 75.33 365.13 44.76 397.63 26.00 439.27 L 15.66 469.20 C 7.23 501.24 7.52 533.41 16.52 565.72 C 28.03 601.51 47.20 632.02 74.05 657.25 L 100.00 687.27 C 88.65 677.23 75.99 670.03 62.01 665.67 C 52.65 659.08 45.66 650.97 41.05 641.33 C 19.32 604.07 4.53 580.32 1.01 541.24 C -2.83 498.86 4.29 458.97 22.38 421.56 C 26.32 413.42 29.34 404.84 31.44 395.84 C 39.91 359.69 58.17 327.20 75.24 295.48 C 77.25 291.76 77.76 287.84 76.75 283.72 C 66.84 243.75 64.01 203.24 68.28 162.17 C 72.31 123.86 76.34 94.53 122.84 99.88 C 161.98 104.40 197.25 116.36 228.64 135.76 C 229.93 136.56 231.16 136.50 232.35 135.58 C 367.72 32.47 551.19 28.26 698.00 109.86 C 699.09 110.45 700.28 110.81 701.51 110.92 C 702.74 111.03 703.97 110.89 705.14 110.50 C 740.99 98.27 777.65 89.69 815.12 84.78 C 863.12 78.42 902.12 72.56 913.92 127.94 C 928.29 195.53 917.54 257.45 897.68 323.17 C 897.25 324.57 897.34 325.93 897.95 327.24 L 939.92 418.59 C 941.41 421.88 940.60 424.45 937.49 426.28 C 925.04 433.57 912.44 435.51 899.69 432.09 Z" fill="#412d27" fill-rule="nonzero" node-id="106" stroke="none" target-height="665.6458" target-width="968.6497" target-x="-2.83371" target-y="28.2622"></path><path d="M 885.18 97.96 L 883.76 103.00 L 779.60 198.19 C 776.19 201.30 776.31 204.27 779.97 207.11 C 825.25 242.35 861.51 284.47 888.75 333.46 C 880.74 332.87 873.79 332.37 867.06 327.24 C 851.13 315.07 797.82 276.17 778.78 278.59 C 773.10 279.33 771.41 282.32 773.70 287.56 C 782.49 307.61 794.16 321.75 801.34 343.35 C 801.58 344.03 801.58 344.76 801.34 345.44 C 801.11 346.12 800.66 346.70 800.06 347.09 C 799.46 347.48 798.74 347.65 798.03 347.59 C 797.32 347.53 796.65 347.23 796.12 346.74 C 747.84 303.08 699.33 251.36 635.35 221.53 C 547.53 180.47 448.68 186.15 355.27 198.78 C 353.69 198.99 352.22 198.70 350.88 197.91 C 346.49 195.41 342.86 195.62 339.99 198.55 C 328.91 209.85 324.93 211.41 308.27 214.07 C 280.36 218.46 249.24 236.99 222.83 248.57 C 203.43 257.08 188.57 265.05 178.26 272.46 C 152.60 290.95 130.77 313.38 112.77 339.74 C 84.76 354.69 61.11 373.24 41.83 395.38 C 41.69 395.52 41.50 395.61 41.30 395.63 C 41.10 395.65 40.90 395.61 40.73 395.50 C 40.56 395.40 40.42 395.24 40.35 395.06 C 40.28 394.87 40.27 394.66 40.32 394.47 C 67.55 325.50 94.55 270.13 154.37 218.09 C 155.59 217.03 155.83 215.77 155.10 214.34 C 139.94 185.05 121.46 157.94 99.68 133.02 C 94.71 124.02 89.49 119.50 84.03 119.47 C 110.39 87.53 201.14 132.56 227.96 148.12 C 228.60 148.50 229.34 148.69 230.08 148.67 C 230.83 148.65 231.55 148.41 232.17 147.98 C 241.08 142.00 253.66 133.34 269.92 121.99 C 390.69 37.69 564.92 48.86 689.95 114.67 C 692.09 115.79 692.02 116.82 689.77 117.73 C 682.86 120.48 672.88 120.61 667.89 126.47 C 666.91 127.63 667.16 128.04 668.62 127.71 C 707.62 118.56 854.70 75.99 885.18 97.96 Z M 315.27 207.93 C 315.65 208.48 316.19 208.88 316.81 209.10 C 317.43 209.31 318.11 209.32 318.73 209.12 C 319.35 208.91 319.89 208.51 320.26 207.98 C 320.62 207.44 320.80 206.80 320.77 206.15 C 320.25 194.01 320.29 181.63 320.90 169.03 C 321.15 164.34 319.24 161.39 315.18 160.20 C 314.19 159.91 313.13 159.84 312.10 159.99 C 311.07 160.13 310.08 160.50 309.21 161.07 C 308.33 161.63 307.58 162.37 307.01 163.25 C 306.43 164.13 306.06 165.12 305.89 166.15 C 303.54 181.13 306.67 195.06 315.27 207.93 Z" fill="#fefefe" fill-rule="nonzero" node-id="108" stroke="none" target-height="357.9638" target-width="848.4845" target-x="40.2665" target-y="37.6892"></path><path d="M 885.18 97.96 C 892.87 102.17 897.77 110.27 899.87 122.26 L 887.75 123.41 C 886.98 123.47 886.25 123.81 885.72 124.37 C 885.18 124.92 884.86 125.65 884.82 126.43 C 884.36 135.40 882.24 140.20 878.46 140.84 L 857.31 135.99 L 883.76 103.00 L 885.18 97.96 Z" fill="#fcd9c8" fill-rule="nonzero" node-id="110" stroke="none" target-height="42.881805" target-width="42.560974" target-x="857.312" target-y="97.9612"></path><path d="M 84.03 119.47 C 89.49 119.50 94.71 124.02 99.68 133.02 C 99.10 137.04 100.56 141.36 104.07 145.97 C 88.97 178.14 94.92 208.71 97.71 242.26 C 98.63 253.06 95.42 261.94 94.23 272.92 L 86.32 285.82 C 86.23 286.00 86.11 286.17 85.97 286.30 C 85.82 286.44 85.65 286.54 85.46 286.61 C 85.08 286.75 84.67 286.73 84.30 286.56 C 83.94 286.39 83.66 286.08 83.52 285.70 C 83.38 285.32 83.40 284.91 83.57 284.54 L 86.86 274.52 C 87.41 272.90 87.51 271.26 87.14 269.58 C 76.00 219.33 74.97 169.29 84.03 119.47 Z" fill="#fcd9c8" fill-rule="nonzero" node-id="112" stroke="none" target-height="167.275" target-width="29.105995" target-x="74.966" target-y="119.47"></path><path d="M 899.87 122.26 C 906.46 146.73 908.81 173.66 906.92 203.04 C 899.38 193.03 892.29 190.48 885.64 195.39 C 880.09 199.51 875.30 198.49 871.27 192.33 L 878.46 140.84 C 882.24 140.20 884.36 135.40 884.82 126.43 C 884.86 125.66 885.18 124.92 885.72 124.37 C 886.25 123.81 886.98 123.47 887.75 123.41 L 899.87 122.26 Z" fill="#d0988b" fill-rule="nonzero" node-id="114" stroke="none" target-height="80.775" target-width="37.541992" target-x="871.27" target-y="122.262"></path><path d="M 857.31 135.99 L 878.46 140.84 L 871.27 192.33 C 866.82 221.31 856.12 242.03 839.19 254.48 L 794.34 211.41 C 792.97 210.07 792.97 208.74 794.34 207.43 C 817.47 184.82 838.46 161.01 857.31 135.99 Z" fill="#a97071" fill-rule="nonzero" node-id="116" stroke="none" target-height="118.48399" target-width="85.48804" target-x="792.967" target-y="135.992"></path><path d="M 104.07 145.97 C 106.36 150.70 108.34 155.79 110.02 161.25 C 115.61 179.38 127.55 197.64 136.88 214.34 C 137.97 216.26 138.42 218.47 138.18 220.66 C 137.94 222.85 137.03 224.91 135.56 226.56 L 94.23 272.92 C 95.42 261.94 98.63 253.06 97.71 242.26 C 94.92 208.71 88.97 178.14 104.07 145.97 Z" fill="#a97071" fill-rule="nonzero" node-id="118" stroke="none" target-height="126.951004" target-width="49.448097" target-x="88.9699" target-y="145.968"></path><path d="M 315.27 207.93 C 306.67 195.06 303.55 181.13 305.89 166.15 C 306.06 165.12 306.44 164.13 307.01 163.25 C 307.58 162.37 308.33 161.63 309.21 161.07 C 310.09 160.50 311.07 160.14 312.10 159.99 C 313.13 159.84 314.19 159.91 315.18 160.20 C 319.24 161.39 321.15 164.34 320.90 169.03 C 320.29 181.63 320.25 194.01 320.77 206.15 C 320.80 206.80 320.62 207.44 320.26 207.98 C 319.89 208.51 319.35 208.91 318.73 209.12 C 318.11 209.32 317.43 209.31 316.81 209.10 C 316.19 208.89 315.65 208.48 315.27 207.93 Z" fill="#fbf1e1" fill-rule="nonzero" node-id="120" stroke="none" target-height="49.481995" target-width="17.603973" target-x="303.545" target-y="159.837"></path><path d="M 888.75 333.47 C 900.77 354.30 911.10 376.83 919.74 401.06 C 916.32 399.17 913.12 395.89 910.12 391.22 C 909.68 390.52 909.00 390.01 908.20 389.80 L 821.34 364.36 C 820.09 363.99 819.80 364.37 820.47 365.50 C 831.91 384.54 846.45 400.65 864.09 413.83 C 887.56 442.48 914.56 472.18 948.70 482.80 C 948.70 483.95 947.89 485.34 946.28 486.96 C 908.89 490.76 854.34 489.02 823.86 463.07 C 823.71 462.91 823.50 462.82 823.28 462.82 C 823.06 462.81 822.85 462.90 822.69 463.05 C 822.53 463.20 822.44 463.41 822.44 463.63 C 822.43 463.85 822.52 464.06 822.67 464.21 C 836.53 482.34 853.61 500.60 860.79 520.92 C 865.40 533.95 867.98 547.54 868.52 561.69 L 826.24 560.00 C 824.84 559.97 824.03 559.25 823.81 557.85 L 819.65 532.77 C 819.40 531.15 818.53 530.02 817.04 529.38 C 805.81 524.47 794.25 521.97 782.35 521.88 C 774.90 521.82 766.29 521.48 756.49 520.87 C 747.74 520.32 739.03 521.22 730.36 523.57 C 721.99 525.81 717.96 532.63 711.14 537.85 C 709.71 538.92 708.76 538.60 708.30 536.89 C 708.12 536.16 708.10 535.33 708.26 534.42 C 716.46 525.20 720.80 514.39 721.25 501.97 C 723.42 443.76 700.16 400.66 651.46 372.69 C 644.92 368.93 639.52 369.67 635.77 376.26 C 635.03 377.60 633.90 378.33 632.38 378.45 C 627.83 378.82 623.84 377.17 620.39 373.51 C 599.75 349.30 556.18 370.76 537.24 387.93 C 497.28 424.12 506.75 492.54 536.96 530.25 C 556.50 554.60 588.63 556.20 617.41 548.28 C 617.66 558.57 613.48 566.00 604.88 570.57 C 604.28 570.89 603.77 571.32 603.36 571.85 C 602.95 572.38 602.65 572.99 602.50 573.64 C 596.82 596.43 612.61 619.91 631.65 630.93 C 632.21 631.25 632.70 631.68 633.10 632.19 C 633.49 632.70 633.77 633.29 633.93 633.91 C 634.58 636.44 636.18 637.86 638.74 638.17 C 644.20 638.84 648.02 641.32 650.18 645.63 C 650.85 646.94 651.90 647.73 653.34 648.01 C 659.72 649.16 669.02 651.87 681.26 656.11 C 699.41 662.42 722.15 664.24 749.49 661.55 C 750.24 661.46 750.99 661.61 751.64 661.96 L 763.45 668.42 C 765.16 669.36 766.79 669.24 768.35 668.05 C 776.86 661.52 786.88 660.06 798.41 663.66 L 763.59 699.67 C 722.55 736.01 683.47 764.61 646.34 785.48 C 597.40 812.94 565.58 831.32 550.87 840.63 C 532.98 856.78 519.11 854.54 497.28 857.06 C 390.42 869.41 288.82 837.38 187.69 789.51 L 172.72 782.33 C 171.99 777.84 170.14 774.38 167.18 771.94 C 165.75 770.75 165.50 769.34 166.45 767.73 L 167.14 766.63 C 167.78 765.53 167.50 764.77 166.31 764.34 L 163.06 763.15 C 162.33 762.88 161.71 762.39 161.28 761.75 C 160.85 761.10 160.64 760.33 160.68 759.56 C 160.72 758.78 161.01 758.04 161.51 757.45 C 162.00 756.85 162.68 756.42 163.43 756.24 L 166.27 755.55 L 189.65 763.88 C 189.80 763.94 189.96 763.95 190.10 763.89 C 190.24 763.83 190.35 763.72 190.41 763.57 C 190.47 763.42 190.47 763.25 190.41 763.10 C 190.36 762.94 190.25 762.81 190.11 762.74 L 158.76 747.73 C 154.40 742.85 149.55 738.41 144.21 734.41 C 126.91 721.41 113.96 703.47 100.00 687.27 L 74.05 657.25 C 75.88 646.45 60.32 629.42 57.53 614.00 L 35.61 538.54 C 25.27 532.71 31.83 531.02 55.29 533.46 C 56.57 536.23 56.86 539.22 56.16 542.43 C 55.82 543.89 54.98 544.99 53.64 545.72 C 50.28 547.58 48.73 550.77 48.97 555.29 C 51.86 614.14 133.73 604.67 169.84 588.37 C 191.30 578.72 206.91 549.70 202.06 525.77 C 188.69 519.64 176.81 510.96 166.40 499.73 C 161.25 479.13 161.38 457.40 166.82 434.51 C 167.40 433.45 168.42 433.10 169.88 433.46 C 171.16 433.77 171.79 433.25 171.76 431.90 L 171.53 424.35 C 173.97 418.68 174.87 412.94 174.23 407.15 L 183.34 388.52 C 185.93 388.86 186.45 390.21 184.89 392.59 C 173.13 433.96 176.06 484.63 212.63 514.28 C 317.93 563.43 376.97 402.80 294.27 348.98 C 245.53 317.26 180.77 353.46 154.14 397.44 C 143.92 417.92 139.13 439.33 139.77 461.70 C 139.01 464.54 137.33 465.82 134.74 465.54 C 133.24 465.36 132.54 464.50 132.63 462.98 C 133.24 452.51 131.52 442.48 127.46 432.87 C 126.64 430.88 125.20 430.20 123.16 430.81 C 99.79 437.46 78.75 448.33 60.05 463.44 C 58.86 464.38 58.34 464.11 58.49 462.61 C 59.25 455.50 57.79 453.90 54.10 457.81 C 62.03 434.65 73.56 414.24 88.70 396.57 C 89.00 396.24 89.19 395.82 89.26 395.38 C 89.33 394.93 89.27 394.48 89.09 394.07 C 88.90 393.65 88.60 393.31 88.23 393.06 C 87.85 392.82 87.41 392.69 86.96 392.69 C 83.27 392.65 79.62 394.91 76.02 399.46 C 61.31 417.92 50.15 434.22 42.52 448.38 C 37.81 457.17 37.85 468.11 33.78 477.85 C 28.23 470.74 27.52 462.84 31.67 454.15 C 32.38 452.68 32.34 451.23 31.58 449.80 L 26.00 439.27 C 44.76 397.63 75.33 365.13 112.77 339.74 C 130.77 313.38 152.60 290.95 178.26 272.46 C 188.57 265.05 203.43 257.08 222.83 248.57 C 249.24 236.99 280.36 218.46 308.27 214.07 C 324.93 211.41 328.91 209.86 339.99 198.55 C 342.86 195.62 346.49 195.41 350.88 197.91 C 352.22 198.70 353.69 198.99 355.27 198.78 C 448.68 186.15 547.53 180.47 635.35 221.53 C 699.33 251.36 747.84 303.08 796.12 346.74 C 796.65 347.23 797.32 347.53 798.03 347.59 C 798.75 347.65 799.46 347.48 800.06 347.09 C 800.66 346.70 801.11 346.12 801.35 345.44 C 801.58 344.76 801.58 344.03 801.34 343.35 C 794.16 321.75 782.49 307.61 773.70 287.56 C 771.41 282.32 773.11 279.33 778.78 278.59 C 797.82 276.17 851.13 315.07 867.06 327.24 C 873.79 332.37 880.74 332.87 888.75 333.47 Z M 244.02 282.53 C 267.22 283.31 293.31 309.07 306.72 326.56 C 310.93 332.05 311.36 331.77 308.00 325.73 C 291.16 295.48 249.92 264.36 213.72 286.56 C 213.47 286.68 213.28 286.89 213.19 287.15 C 213.11 287.41 213.13 287.69 213.25 287.94 C 213.38 288.19 213.60 288.39 213.86 288.49 C 214.13 288.59 214.43 288.59 214.69 288.48 C 239.31 279.14 275.87 310.26 292.81 327.70 C 293.05 327.97 293.34 328.10 293.68 328.06 C 293.83 328.06 293.98 328.05 294.13 328.02 C 294.71 327.93 294.73 327.58 294.18 326.97 C 279.75 309.85 262.83 295.76 243.43 284.68 C 240.71 283.15 240.91 282.44 244.02 282.53 Z M 597.83 308.11 C 572.63 312.90 550.46 324.10 531.33 341.70 C 531.18 341.86 531.21 341.92 531.42 341.89 C 531.82 341.82 532.25 341.81 532.70 341.84 C 533.10 341.87 533.45 341.76 533.76 341.52 C 564.24 316.94 601.81 301.98 638.15 316.67 C 638.36 316.76 638.54 316.69 638.70 316.44 C 638.76 316.32 638.85 316.23 638.97 316.17 C 639.27 315.92 639.26 315.74 638.92 315.62 C 619.25 307.56 594.12 297.77 572.98 303.44 C 546.98 310.40 526.25 325.43 510.78 348.52 C 510.66 348.74 510.64 348.95 510.74 349.16 C 510.77 349.25 510.81 349.36 510.87 349.48 C 511.06 349.88 511.29 349.89 511.56 349.53 C 530.38 323.93 555.57 308.81 587.12 304.18 C 591.24 303.57 594.91 304.19 598.15 306.05 C 599.92 307.03 599.81 307.72 597.83 308.11 Z M 417.10 457.49 L 383.33 457.26 C 381.65 457.26 380.06 457.64 378.57 458.40 C 371.03 462.28 363.10 462.66 354.77 459.55 C 353.69 459.14 352.53 458.99 351.38 459.10 C 350.24 459.22 349.13 459.60 348.15 460.21 C 347.18 460.82 346.35 461.64 345.75 462.63 C 345.14 463.61 344.77 464.71 344.66 465.86 L 343.06 482.80 C 342.90 484.54 343.56 485.86 345.02 486.78 C 349.11 489.34 351.72 492.80 352.85 497.17 C 334.22 523.39 368.45 547.92 391.11 551.81 C 391.44 552.27 391.61 553.09 391.61 554.28 C 378.57 554.42 367.54 597.53 352.85 605.90 C 351.45 606.70 351.17 607.78 352.02 609.15 C 352.88 610.49 354.12 610.91 355.73 610.39 C 359.88 609.11 363.65 608.98 367.04 610.02 C 368.65 610.51 369.72 611.55 370.24 613.13 C 373.76 623.93 396.92 702.33 419.16 658.12 L 427.72 635.38 C 428.27 633.88 428.18 632.43 427.44 631.03 C 424.97 626.24 425.92 622.47 430.28 619.72 C 431.93 619.57 433.36 618.55 434.58 616.66 L 438.80 614.92 C 440.69 614.15 440.95 613.01 439.57 611.49 L 416.10 584.90 C 426.26 575.77 430.47 567.60 428.73 560.37 C 428.55 559.63 428.12 558.98 427.52 558.53 C 426.92 558.08 426.18 557.86 425.43 557.89 C 423.33 558.02 422.29 557.06 422.32 555.01 C 422.35 553.46 423.08 552.34 424.52 551.67 L 435.50 546.68 C 436.96 546.01 438.38 546.10 439.76 546.96 C 452.07 554.55 483.19 561.37 476.28 533.96 C 470.94 512.70 459.13 493.58 440.85 476.62 C 437.59 473.57 436.55 469.37 437.74 464.03 C 434.26 454.76 427.38 452.58 417.10 457.49 Z" fill="#fdfaee" fill-rule="nonzero" node-id="122" stroke="none" target-height="688.93994" target-width="923.4378" target-x="25.2662" target-y="180.475"></path><path d="M 871.27 192.33 C 875.30 198.49 880.09 199.51 885.64 195.40 C 892.29 190.48 899.38 193.03 906.92 203.04 C 906.16 225.52 904.10 242.04 900.74 252.60 C 894.21 273.13 889.47 294.02 886.51 315.25 C 886.36 316.29 885.96 316.38 885.32 315.53 L 839.19 254.48 C 856.12 242.03 866.82 221.31 871.27 192.33 Z" fill="#c28780" fill-rule="nonzero" node-id="124" stroke="none" target-height="125.89902" target-width="67.73096" target-x="839.189" target-y="190.482"></path><path d="M 306.72 326.56 C 293.31 309.07 267.22 283.31 244.02 282.53 C 240.91 282.44 240.71 283.15 243.43 284.68 C 262.83 295.76 279.75 309.85 294.18 326.97 C 294.73 327.58 294.71 327.93 294.13 328.02 C 293.98 328.05 293.83 328.07 293.68 328.07 C 293.34 328.10 293.05 327.97 292.81 327.70 C 275.87 310.26 239.31 279.14 214.69 288.48 C 214.43 288.59 214.13 288.59 213.86 288.49 C 213.59 288.39 213.38 288.19 213.25 287.94 C 213.13 287.69 213.10 287.41 213.19 287.15 C 213.28 286.89 213.47 286.68 213.72 286.56 C 249.92 264.36 291.16 295.48 308.00 325.73 C 311.36 331.77 310.93 332.05 306.72 326.56 Z" fill="#170f0a" fill-rule="nonzero" node-id="126" stroke="none" target-height="67.686005" target-width="98.250015" target-x="213.105" target-y="264.361"></path><path d="M 598.15 306.05 C 594.91 304.19 591.24 303.57 587.12 304.18 C 555.57 308.81 530.38 323.93 511.56 349.53 C 511.29 349.90 511.06 349.88 510.87 349.48 C 510.81 349.36 510.77 349.25 510.74 349.16 C 510.64 348.95 510.66 348.74 510.78 348.52 C 526.25 325.43 546.98 310.40 572.98 303.44 C 594.12 297.77 619.24 307.56 638.92 315.62 C 639.26 315.74 639.27 315.92 638.97 316.17 C 638.85 316.23 638.75 316.32 638.69 316.44 C 638.54 316.69 638.36 316.76 638.14 316.67 C 601.81 301.98 564.24 316.94 533.76 341.52 C 533.45 341.76 533.10 341.87 532.70 341.84 C 532.25 341.81 531.82 341.83 531.42 341.89 C 531.21 341.92 531.18 341.86 531.33 341.70 C 550.46 324.10 572.62 312.90 597.83 308.11 C 599.81 307.72 599.92 307.03 598.15 306.05 Z" fill="#170f0a" fill-rule="nonzero" node-id="128" stroke="none" target-height="52.126007" target-width="128.629" target-x="510.645" target-y="297.77"></path><path d="M 212.63 514.28 L 213.18 511.44 C 251.75 533.18 291.66 518.40 314.09 482.29 C 330.61 450.67 337.56 416.07 318.57 384.13 C 308.64 365.18 286.86 342.39 263.52 345.87 C 240.91 349.25 221.76 356.38 206.08 367.24 L 183.34 388.52 L 174.23 407.15 L 168.69 410.81 C 168.02 408.19 166.27 406.93 163.43 407.06 C 162.81 407.07 162.21 407.22 161.66 407.50 C 161.12 407.78 160.64 408.17 160.27 408.66 L 157.62 412.27 C 157.38 412.70 156.99 413.01 156.52 413.14 C 156.05 413.28 155.55 413.22 155.12 412.98 C 154.70 412.75 154.38 412.35 154.25 411.88 C 154.12 411.42 154.18 410.91 154.41 410.49 L 158.40 400.42 C 158.88 399.20 158.49 398.44 157.21 398.13 L 154.14 397.44 C 180.77 353.47 245.53 317.27 294.27 348.98 C 376.97 402.80 317.93 563.43 212.63 514.28 Z" fill="#372720" fill-rule="nonzero" node-id="130" stroke="none" target-height="246.16699" target-width="222.848" target-x="154.119" target-y="317.266"></path><path d="M 318.57 384.13 C 313.57 383.94 309.95 385.35 307.73 388.34 C 305.59 383.00 302.75 381.46 299.21 383.71 L 295.69 374.97 C 299.49 364.26 288.50 357.45 278.62 357.13 C 261.46 356.58 243.20 357.13 231.02 371.08 C 216.29 388.05 210.34 409.07 213.18 434.15 C 212.32 442.32 209.87 448.33 205.81 452.18 C 201.28 456.48 197.16 455.11 191.57 454.15 C 188.89 453.69 187.17 453.92 186.40 454.83 C 185.37 456.08 185.04 458.22 185.44 461.24 C 179.55 435.89 181.20 411.91 190.38 389.30 C 190.72 388.48 190.49 387.89 189.70 387.56 C 189.27 387.38 188.80 387.13 188.28 386.83 L 206.08 367.24 C 221.76 356.38 240.91 349.25 263.52 345.87 C 286.86 342.39 308.64 365.18 318.57 384.13 Z" fill="#715337" fill-rule="nonzero" node-id="132" stroke="none" target-height="118.85098" target-width="139.01701" target-x="179.554" target-y="342.39"></path><path d="M 295.69 374.97 C 259.49 348.11 236.51 405.22 271.80 403.58 C 285.07 402.97 294.21 396.35 299.21 383.71 C 302.75 381.46 305.59 383.00 307.73 388.34 C 317.98 418.33 313.70 442.57 294.91 461.06 C 262.19 489.16 225.62 471.40 213.18 434.15 C 210.34 409.07 216.29 388.05 231.02 371.08 C 243.20 357.13 261.46 356.58 278.62 357.13 C 288.50 357.45 299.49 364.26 295.69 374.97 Z" fill="#2e1e1b" fill-rule="nonzero" node-id="134" stroke="none" target-height="141.04703" target-width="107.638016" target-x="210.338" target-y="348.11"></path><path d="M 620.39 373.51 L 615.49 374.20 C 595.77 357.81 557.60 376.85 542.54 392.32 C 507.49 416.02 509.50 461.24 520.30 496.71 C 532.57 532.31 556.36 550.07 591.70 549.98 C 613.20 549.92 631.01 542.76 645.10 528.51 C 645.35 529.76 645.87 530.56 646.66 530.89 C 637.69 539.13 627.94 544.93 617.41 548.28 C 588.63 556.20 556.50 554.60 536.96 530.25 C 506.75 492.54 497.28 424.13 537.24 387.93 C 556.18 370.76 599.75 349.30 620.39 373.51 Z" fill="#170f0a" fill-rule="nonzero" node-id="136" stroke="none" target-height="206.90103" target-width="149.376" target-x="497.282" target-y="349.301"></path><path d="M 919.73 401.06 C 924.77 406.49 928.52 412.99 930.99 420.56 C 931.57 422.30 930.95 423.24 929.12 423.39 C 906.93 425.50 885.26 422.31 864.09 413.83 C 846.45 400.65 831.91 384.54 820.47 365.50 C 819.80 364.37 820.09 363.99 821.34 364.36 L 908.20 389.80 C 909.00 390.01 909.68 390.52 910.12 391.22 C 913.11 395.89 916.32 399.17 919.73 401.06 Z" fill="#cec3b9" fill-rule="nonzero" node-id="138" stroke="none" target-height="61.507996" target-width="111.77203" target-x="819.8" target-y="363.991"></path><path d="M 206.08 367.24 L 188.28 386.83 C 188.22 389.21 187.09 391.13 184.89 392.59 C 186.45 390.21 185.93 388.86 183.34 388.52 L 206.08 367.24 Z" fill="#b4aaa6" fill-rule="nonzero" node-id="140" stroke="none" target-height="25.354004" target-width="22.744995" target-x="183.336" target-y="367.24"></path><path d="M 295.69 374.98 L 299.21 383.72 C 294.21 396.35 285.07 402.97 271.80 403.58 C 236.51 405.23 259.49 348.11 295.69 374.98 Z" fill="#fefefe" fill-rule="nonzero" node-id="142" stroke="none" target-height="57.114014" target-width="62.697998" target-x="236.514" target-y="348.111"></path><path d="M 615.49 374.20 L 622.63 380.24 C 623.17 380.71 623.54 381.35 623.68 382.05 C 623.81 382.75 623.71 383.48 623.38 384.12 C 623.06 384.76 622.52 385.27 621.87 385.57 C 621.22 385.87 620.49 385.94 619.79 385.77 C 595.14 379.58 572.78 384.17 552.70 399.55 C 553.62 394.91 550.23 392.50 542.54 392.32 C 557.60 376.85 595.77 357.81 615.49 374.20 Z" fill="#4e423d" fill-rule="nonzero" node-id="144" stroke="none" target-height="41.738007" target-width="81.26996" target-x="542.543" target-y="357.813"></path><path d="M 708.26 534.42 C 693.37 543.60 676.42 550.74 657.41 555.84 C 651.68 558.00 650.73 557.76 654.58 555.10 L 678.05 541.83 C 680.49 542.20 682.02 542.20 682.63 541.83 C 698.89 538.63 705.77 525.82 703.27 503.39 C 704.18 487.37 704.37 475.86 703.82 468.84 C 703.45 464.38 700.78 462.95 695.81 464.54 C 695.35 457.12 693.26 450.39 689.54 444.35 C 689.87 439.50 686.96 434.58 680.80 429.57 C 678.05 422.46 673.60 416.00 667.43 410.17 L 657.41 396.07 C 656.83 395.28 656.15 395.17 655.35 395.75 L 654.16 396.67 C 654.00 396.79 653.86 396.94 653.75 397.12 C 653.65 397.30 653.59 397.50 653.58 397.70 C 653.56 397.90 653.59 398.11 653.65 398.30 C 653.73 398.50 653.84 398.67 653.98 398.82 L 666.75 412.09 C 684.69 450.44 680.39 501.06 646.66 530.89 C 645.86 530.56 645.35 529.77 645.10 528.51 C 655.99 517.53 663.33 505.65 667.11 492.86 C 676.94 459.21 674.02 432.47 658.37 412.64 C 651.75 400.68 643.35 395.92 633.16 398.36 C 608.67 404.22 633.75 443.39 649.59 430.72 C 651.57 430.81 651.60 433.13 649.68 437.67 C 649.07 439.14 648.88 440.65 649.13 442.20 C 650.78 453.61 648.88 464.73 643.45 475.56 L 609.86 503.85 C 582.80 509.77 560.74 502.03 543.69 480.64 C 528.95 449.19 531.96 422.16 552.70 399.55 C 572.78 384.17 595.14 379.58 619.79 385.77 C 620.49 385.94 621.22 385.87 621.87 385.57 C 622.52 385.27 623.06 384.76 623.38 384.12 C 623.71 383.48 623.81 382.75 623.68 382.05 C 623.54 381.35 623.17 380.71 622.63 380.24 L 615.49 374.20 L 620.39 373.51 C 623.84 377.17 627.83 378.82 632.38 378.45 C 633.90 378.33 635.03 377.60 635.76 376.26 C 639.52 369.67 644.92 368.93 651.46 372.69 C 700.16 400.66 723.42 443.76 721.25 501.97 C 720.80 514.39 716.46 525.21 708.26 534.42 Z M 647.71 381.02 C 648.26 381.14 648.82 381.27 649.40 381.43 C 655.60 383.38 655.95 382.63 650.46 379.19 C 646.55 376.74 642.49 376.52 638.28 378.50 C 638.01 378.60 637.79 378.81 637.65 379.07 C 637.52 379.32 637.49 379.63 637.56 379.91 C 637.63 380.19 637.81 380.44 638.05 380.60 C 638.29 380.76 638.59 380.83 638.88 380.79 L 642.72 380.60 C 644.40 380.51 646.06 380.65 647.71 381.02 Z" fill="#2e1e1b" fill-rule="nonzero" node-id="146" stroke="none" target-height="189.069" target-width="194.469" target-x="528.951" target-y="368.934"></path><path d="M 642.72 380.60 L 638.88 380.79 C 638.59 380.83 638.29 380.76 638.05 380.60 C 637.81 380.44 637.63 380.19 637.56 379.91 C 637.49 379.63 637.52 379.33 637.65 379.07 C 637.79 378.81 638.01 378.60 638.28 378.50 C 642.49 376.52 646.55 376.75 650.46 379.19 C 655.95 382.63 655.60 383.38 649.40 381.43 C 648.82 381.28 648.26 381.14 647.71 381.02 C 646.06 380.65 644.40 380.51 642.72 380.60 Z" fill="#4e423d" fill-rule="nonzero" node-id="148" stroke="none" target-height="6.8650208" target-width="18.461975" target-x="637.486" target-y="376.516"></path><path d="M 318.57 384.13 C 337.56 416.07 330.61 450.67 314.09 482.29 C 313.63 479.61 314.16 476.88 315.69 474.10 C 316.36 472.85 316.07 471.90 314.82 471.26 L 294.91 461.06 C 313.70 442.57 317.98 418.33 307.72 388.34 C 309.95 385.35 313.57 383.94 318.57 384.13 Z" fill="#836b44" fill-rule="nonzero" node-id="150" stroke="none" target-height="98.34799" target-width="42.652985" target-x="294.91" target-y="383.945"></path><path d="M 188.28 386.83 C 188.80 387.13 189.27 387.38 189.70 387.56 C 190.49 387.90 190.72 388.48 190.38 389.30 C 181.20 411.91 179.55 435.89 185.44 461.24 C 185.14 463.99 185.93 467.16 187.82 470.76 C 189.53 477.84 193.54 485.24 199.86 492.96 C 200.53 499.09 204.97 505.25 213.18 511.44 L 212.63 514.28 C 176.06 484.63 173.13 433.96 184.89 392.59 C 187.09 391.13 188.22 389.21 188.28 386.83 Z" fill="#170f0a" fill-rule="nonzero" node-id="152" stroke="none" target-height="127.45398" target-width="40.044006" target-x="173.131" target-y="386.828"></path><path d="M 54.10 457.81 L 40.32 495.65 C 37.06 494.53 34.69 494.71 33.23 496.20 C 33.66 494.44 33.26 492.89 32.04 491.58 L 33.78 477.85 C 37.85 468.11 37.80 457.17 42.52 448.38 C 50.15 434.22 61.31 417.92 76.02 399.46 C 79.62 394.91 83.26 392.65 86.96 392.69 C 87.41 392.69 87.85 392.82 88.23 393.06 C 88.60 393.31 88.90 393.65 89.09 394.07 C 89.27 394.48 89.33 394.93 89.26 395.38 C 89.19 395.82 89.00 396.24 88.70 396.57 C 73.56 414.24 62.03 434.65 54.10 457.81 Z" fill="#fefefe" fill-rule="nonzero" node-id="154" stroke="none" target-height="103.54999" target-width="57.2924" target-x="32.0386" target-y="392.655"></path><path d="M 542.54 392.32 C 550.23 392.50 553.62 394.91 552.70 399.55 C 531.96 422.16 528.95 449.19 543.69 480.64 C 529.38 483.33 521.58 488.68 520.30 496.71 C 509.50 461.24 507.49 416.02 542.54 392.32 Z" fill="#836b44" fill-rule="nonzero" node-id="156" stroke="none" target-height="104.38901" target-width="46.130005" target-x="507.487" target-y="392.319"></path><path d="M 667.43 410.17 C 665.51 411.08 665.28 411.72 666.75 412.09 L 653.98 398.82 C 653.84 398.67 653.72 398.50 653.65 398.30 C 653.59 398.11 653.56 397.90 653.58 397.70 C 653.59 397.50 653.65 397.30 653.75 397.12 C 653.86 396.94 654.00 396.79 654.16 396.67 L 655.35 395.75 C 656.15 395.17 656.83 395.28 657.41 396.07 L 667.43 410.17 Z" fill="#715337" fill-rule="nonzero" node-id="158" stroke="none" target-height="16.916992" target-width="13.876038" target-x="653.558" target-y="395.172"></path><path d="M 154.14 397.44 L 157.21 398.13 C 158.49 398.44 158.88 399.20 158.40 400.42 L 154.41 410.49 C 154.30 410.70 154.22 410.93 154.19 411.17 C 154.17 411.41 154.19 411.65 154.25 411.88 C 154.38 412.35 154.70 412.75 155.12 412.98 C 155.55 413.22 156.05 413.28 156.52 413.14 C 156.98 413.01 157.38 412.70 157.62 412.27 L 160.27 408.66 C 160.64 408.17 161.12 407.78 161.66 407.50 C 162.21 407.22 162.81 407.07 163.43 407.06 C 166.27 406.93 168.02 408.18 168.69 410.81 C 155.60 429.25 133.18 490.76 166.40 499.73 C 176.81 510.96 188.69 519.64 202.05 525.77 C 171.03 516.62 141.87 496.98 139.77 461.70 C 139.13 439.33 143.92 417.92 154.14 397.44 Z" fill="#170f0a" fill-rule="nonzero" node-id="160" stroke="none" target-height="128.324" target-width="68.87601" target-x="133.178" target-y="397.444"></path><path d="M 658.37 412.64 L 649.59 430.71 C 633.75 443.39 608.67 404.22 633.16 398.36 C 643.35 395.92 651.75 400.68 658.37 412.64 Z" fill="#fefefe" fill-rule="nonzero" node-id="162" stroke="none" target-height="47.472992" target-width="49.700012" target-x="608.673" target-y="395.919"></path><path d="M 174.23 407.15 C 174.87 412.94 173.97 418.68 171.53 424.36 C 167.29 424.29 165.72 427.68 166.82 434.51 C 161.38 457.40 161.25 479.13 166.40 499.73 C 133.18 490.76 155.60 429.25 168.69 410.81 L 174.23 407.15 Z" fill="#715337" fill-rule="nonzero" node-id="164" stroke="none" target-height="92.582" target-width="41.692" target-x="133.179" target-y="407.147"></path><path d="M 667.43 410.17 C 673.60 415.99 678.05 422.46 680.80 429.57 L 685.97 476.39 C 686.09 477.43 686.67 477.96 687.71 477.99 C 688.13 477.99 688.58 477.99 689.03 477.99 C 689.28 477.99 689.53 477.94 689.76 477.84 C 690.00 477.75 690.20 477.60 690.38 477.43 C 690.55 477.25 690.69 477.03 690.78 476.80 C 690.87 476.57 690.92 476.32 690.91 476.07 L 689.54 444.35 C 693.26 450.39 695.35 457.12 695.81 464.54 C 700.16 494.24 699.29 518.58 678.05 541.83 L 654.57 555.10 C 646.06 552.17 629.82 545.17 627.48 560.32 C 627.30 561.63 627.77 561.95 628.90 561.28 L 630.55 560.32 C 630.72 560.22 630.93 560.17 631.13 560.20 C 631.33 560.23 631.51 560.33 631.65 560.48 C 631.79 560.63 631.88 560.83 631.91 561.04 C 631.93 561.25 631.89 561.47 631.78 561.65 C 614.94 588.19 630.82 602.88 651.55 618.35 C 676.13 636.70 698.74 631.76 723.54 635.70 C 737.00 637.83 756.84 641.23 783.08 645.90 C 788.12 646.78 790.88 645.05 791.37 640.68 C 791.49 639.49 790.97 638.73 789.81 638.39 L 765.78 631.76 C 764.75 631.48 764.20 630.81 764.13 629.75 C 763.80 623.86 765.72 619.10 769.90 615.47 C 771.18 614.37 771.72 612.98 771.50 611.30 L 770.59 603.43 C 770.37 601.60 771.20 600.64 773.06 600.55 C 786.70 599.97 800.30 600.41 813.88 601.88 C 814.15 601.90 814.34 601.80 814.43 601.55 C 814.58 601.07 814.74 600.58 814.89 600.09 C 815.25 598.81 814.77 598.12 813.42 598.03 L 765.46 594.64 C 764.57 594.57 763.73 594.21 763.06 593.62 C 762.39 593.04 761.93 592.25 761.74 591.38 C 761.55 590.51 761.65 589.60 762.01 588.79 C 762.38 587.98 762.99 587.30 763.77 586.86 C 768.77 584.15 769.08 578.96 764.68 571.30 C 763.80 569.81 762.50 569.06 760.79 569.06 C 759.33 569.09 759.12 568.57 760.15 567.51 L 761.07 566.64 C 762.23 565.48 763.62 564.88 765.23 564.85 L 797.63 564.44 C 798.17 564.43 798.69 564.20 799.08 563.81 C 799.46 563.42 799.67 562.90 799.67 562.36 C 799.67 561.82 799.46 561.30 799.08 560.93 C 798.69 560.56 798.17 560.35 797.63 560.37 L 673.57 559.91 C 672.28 559.91 671.03 560.11 669.81 560.50 C 662.80 562.91 658.66 561.36 657.41 555.84 C 676.42 550.74 693.37 543.60 708.26 534.42 C 708.10 535.33 708.12 536.16 708.30 536.89 C 708.76 538.60 709.71 538.92 711.14 537.85 C 717.96 532.63 721.99 525.81 730.36 523.57 C 739.02 521.22 747.74 520.32 756.49 520.87 C 766.29 521.48 774.90 521.82 782.35 521.88 C 794.25 521.97 805.81 524.47 817.04 529.38 C 818.53 530.02 819.40 531.15 819.65 532.77 L 823.81 557.85 C 824.02 559.25 824.83 559.97 826.24 560.00 L 868.52 561.69 L 872.96 569.25 C 857.62 564.94 841.14 563.34 823.54 564.44 C 822.32 564.53 821.69 565.19 821.66 566.41 C 820.47 592.07 816.92 617.45 811.00 642.56 C 810.63 644.05 810.85 645.47 811.64 646.82 C 813.62 650.29 817.05 651.85 821.93 651.48 L 815.89 655.47 C 814.83 656.18 813.55 656.50 812.28 656.38 C 804.65 655.65 800.03 658.07 798.41 663.66 C 786.88 660.06 776.86 661.52 768.35 668.05 C 766.79 669.24 765.16 669.36 763.45 668.42 L 751.64 661.96 C 750.99 661.61 750.24 661.46 749.49 661.55 C 722.15 664.24 699.41 662.42 681.25 656.11 C 669.02 651.87 659.72 649.16 653.34 648.01 C 651.90 647.73 650.85 646.94 650.18 645.63 C 648.01 641.32 644.20 638.84 638.74 638.17 C 636.18 637.86 634.58 636.44 633.93 633.91 C 633.77 633.29 633.49 632.70 633.10 632.19 C 632.70 631.68 632.21 631.25 631.65 630.93 C 612.61 619.91 596.82 596.43 602.49 573.64 C 602.65 572.99 602.95 572.38 603.36 571.85 C 603.77 571.32 604.28 570.89 604.87 570.57 C 613.48 566.00 617.66 558.57 617.41 548.28 C 627.94 544.93 637.69 539.13 646.66 530.89 C 680.39 501.06 684.69 450.44 666.75 412.09 C 665.28 411.72 665.51 411.08 667.43 410.17 Z" fill="#fcecdc" fill-rule="nonzero" node-id="166" stroke="none" target-height="259.195" target-width="276.14404" target-x="596.819" target-y="410.167"></path><path d="M 658.37 412.64 C 674.02 432.47 676.94 459.21 667.11 492.86 C 666.99 491.64 665.42 492.53 662.40 495.52 L 661.39 493.78 C 660.63 492.44 659.90 492.45 659.20 493.82 L 657.27 497.62 C 655.35 490.33 651.36 486.73 645.28 486.82 C 643.39 486.85 642.80 486.00 643.50 484.26 C 645.94 478.19 645.92 475.29 643.45 475.56 C 648.88 464.73 650.78 453.61 649.13 442.20 C 648.88 440.65 649.07 439.14 649.68 437.67 C 651.60 433.13 651.57 430.81 649.59 430.72 L 658.37 412.64 Z" fill="#836b44" fill-rule="nonzero" node-id="168" stroke="none" target-height="84.984985" target-width="34.140015" target-x="642.798" target-y="412.639"></path><path d="M 171.53 424.35 L 171.76 431.90 C 171.79 433.25 171.16 433.77 169.88 433.46 C 168.42 433.10 167.40 433.45 166.81 434.51 C 165.72 427.68 167.29 424.29 171.53 424.35 Z" fill="#b4aaa6" fill-rule="nonzero" node-id="170" stroke="none" target-height="10.221008" target-width="6.072006" target-x="165.717" target-y="424.293"></path><path d="M 899.69 432.09 C 898.25 431.97 897.28 432.41 896.76 433.42 C 893.13 433.29 890.03 432.73 887.47 431.72 C 885.21 430.81 885.30 430.26 887.75 430.07 C 891.80 429.74 895.78 430.41 899.69 432.09 Z" fill="#715337" fill-rule="nonzero" node-id="172" stroke="none" target-height="3.6759949" target-width="14.476013" target-x="885.213" target-y="429.74"></path><path d="M 680.80 429.57 C 686.96 434.57 689.87 439.50 689.54 444.35 L 690.91 476.07 C 690.92 476.32 690.87 476.57 690.78 476.80 C 690.69 477.03 690.55 477.25 690.38 477.43 C 690.20 477.60 690.00 477.75 689.76 477.84 C 689.53 477.94 689.29 477.99 689.03 477.99 C 688.58 477.99 688.13 477.99 687.71 477.99 C 686.67 477.96 686.09 477.43 685.97 476.39 L 680.80 429.57 Z" fill="#aaa1a1" fill-rule="nonzero" node-id="174" stroke="none" target-height="48.418976" target-width="10.121033" target-x="680.797" target-y="429.571"></path><path d="M 139.77 461.70 C 141.87 496.98 171.03 516.62 202.05 525.77 C 206.91 549.70 191.30 578.72 169.84 588.38 C 133.73 604.67 51.85 614.14 48.97 555.29 C 48.73 550.77 50.28 547.58 53.64 545.72 C 54.98 544.99 55.82 543.89 56.16 542.43 C 56.86 539.22 56.57 536.23 55.29 533.46 C 54.71 533.00 55.39 532.82 57.35 532.91 L 77.12 536.57 C 78.46 536.81 79.13 537.62 79.13 539.00 L 79.13 540.64 C 79.13 542.47 78.22 543.36 76.38 543.30 C 70.25 543.05 66.26 545.42 64.39 550.39 C 63.85 551.92 64.15 553.24 65.31 554.37 C 74.46 563.25 81.83 572.22 94.42 575.84 C 126.21 584.96 152.35 577.62 172.86 553.82 C 182.24 542.93 183.20 518.17 163.02 516.43 C 149.38 515.29 136.43 512.41 122.97 510.44 C 99.68 507.01 77.21 498.04 51.67 497.49 L 40.32 495.66 L 54.10 457.81 C 57.79 453.90 59.25 455.51 58.49 462.61 C 58.34 464.11 58.86 464.38 60.05 463.44 C 78.75 448.34 99.79 437.46 123.16 430.81 C 125.20 430.20 126.63 430.88 127.46 432.87 C 131.52 442.48 133.24 452.51 132.63 462.98 C 132.54 464.51 133.24 465.36 134.74 465.54 C 137.33 465.82 139.01 464.54 139.77 461.70 Z" fill="#fcecdc" fill-rule="nonzero" node-id="176" stroke="none" target-height="183.943" target-width="166.5827" target-x="40.3223" target-y="430.198"></path><path d="M 213.18 434.15 C 225.62 471.40 262.19 489.16 294.91 461.06 L 314.82 471.26 C 316.07 471.90 316.36 472.85 315.69 474.10 C 314.16 476.88 313.63 479.61 314.09 482.29 C 291.66 518.40 251.75 533.18 213.18 511.44 C 204.97 505.25 200.53 499.09 199.86 492.95 L 205.35 473.60 C 205.67 472.49 205.66 471.32 205.33 470.22 C 205.00 469.12 204.36 468.14 203.49 467.39 C 202.61 466.64 201.54 466.16 200.41 466.00 C 199.27 465.85 198.11 466.02 197.07 466.50 L 187.82 470.76 C 185.93 467.16 185.14 463.99 185.44 461.24 C 185.04 458.22 185.37 456.08 186.40 454.83 C 187.17 453.92 188.89 453.69 191.57 454.15 C 197.16 455.11 201.28 456.48 205.81 452.18 C 209.87 448.33 212.32 442.32 213.18 434.15 Z" fill="#9e9149" fill-rule="nonzero" node-id="178" stroke="none" target-height="99.034" target-width="131.31401" target-x="185.045" target-y="434.148"></path><path d="M 26.00 439.27 L 31.58 449.80 C 32.34 451.23 32.37 452.68 31.67 454.15 C 27.52 462.84 28.22 470.75 33.78 477.85 L 32.04 491.58 C 28.80 492.22 26.35 492.10 24.67 491.22 C 24.07 490.90 23.59 490.40 23.30 489.79 C 23.00 489.18 22.90 488.50 23.02 487.83 C 24.55 479.59 22.09 473.38 15.65 469.20 L 26.00 439.27 Z" fill="#cec3b9" fill-rule="nonzero" node-id="180" stroke="none" target-height="52.950012" target-width="18.122902" target-x="15.6545" target-y="439.274"></path><path d="M 437.74 464.03 L 417.10 457.49 C 427.38 452.58 434.26 454.76 437.74 464.03 Z" fill="#aaa1a1" fill-rule="nonzero" node-id="182" stroke="none" target-height="11.457001" target-width="20.639008" target-x="417.103" target-y="452.576"></path><path d="M 417.10 457.49 L 437.74 464.03 C 436.55 469.37 437.59 473.57 440.85 476.62 C 459.13 493.58 470.94 512.70 476.28 533.96 C 483.19 561.37 452.07 554.55 439.75 546.96 C 438.38 546.10 436.96 546.01 435.50 546.68 L 424.52 551.67 C 423.08 552.34 422.35 553.46 422.32 555.01 C 422.29 557.06 423.33 558.02 425.43 557.90 C 426.18 557.86 426.91 558.08 427.52 558.53 C 428.12 558.98 428.55 559.63 428.73 560.37 C 430.46 567.60 426.25 575.77 416.10 584.90 C 410.97 573.91 404.84 556.71 391.61 554.28 C 391.61 553.09 391.44 552.27 391.11 551.81 C 410.05 548.42 423.04 544.70 430.05 540.64 C 445.38 531.76 452.57 506.04 431.20 498.86 C 409.14 491.40 373.35 481.61 352.85 497.17 C 351.72 492.80 349.11 489.34 345.02 486.78 C 343.56 485.86 342.90 484.54 343.06 482.80 L 344.66 465.86 C 344.77 464.71 345.14 463.61 345.74 462.63 C 346.35 461.64 347.18 460.82 348.15 460.21 C 349.13 459.60 350.24 459.22 351.38 459.10 C 352.53 458.99 353.69 459.14 354.77 459.55 C 363.10 462.66 371.03 462.28 378.57 458.40 C 380.06 457.64 381.65 457.26 383.33 457.26 L 417.10 457.49 Z" fill="#fdfbf5" fill-rule="nonzero" node-id="184" stroke="none" target-height="127.63797" target-width="140.284" target-x="342.902" target-y="457.259"></path><path d="M 946.28 486.96 L 952.04 488.52 C 944.08 499.55 906.14 504.49 892.32 507.46 C 882.62 509.57 874.98 507.97 865.82 505.50 C 865.30 505.34 864.89 505.36 864.59 505.54 C 864.16 505.79 863.93 506.17 863.90 506.69 C 863.87 507.14 864.07 507.45 864.50 507.60 L 939.32 533.14 C 940.30 533.47 940.60 534.11 940.24 535.06 C 916.90 597.07 889.03 649.79 827.24 681.18 C 818.85 685.46 810.48 689.70 802.12 693.91 C 790.40 698.90 775.16 708.96 763.59 699.67 L 798.41 663.66 C 800.03 658.07 804.65 655.65 812.28 656.38 C 813.55 656.50 814.83 656.18 815.89 655.47 L 821.94 651.48 C 840.09 629.55 856.99 606.12 872.64 581.19 C 875.25 577.02 874.06 573.73 872.96 569.25 L 868.52 561.69 C 867.98 547.54 865.40 533.95 860.79 520.92 C 853.61 500.60 836.53 482.34 822.67 464.21 C 822.52 464.06 822.43 463.85 822.44 463.63 C 822.44 463.41 822.53 463.20 822.69 463.05 C 822.85 462.90 823.06 462.81 823.28 462.82 C 823.50 462.82 823.71 462.91 823.86 463.07 C 854.34 489.02 908.89 490.76 946.28 486.96 Z" fill="#cec3b9" fill-rule="nonzero" node-id="186" stroke="none" target-height="246.151" target-width="188.45801" target-x="763.586" target-y="462.813"></path><path d="M 695.81 464.54 C 700.78 462.95 703.45 464.38 703.82 468.84 C 704.37 475.86 704.18 487.37 703.27 503.39 L 694.76 529.15 C 694.27 530.65 693.34 531.79 691.97 532.59 C 687.27 535.33 684.15 538.41 682.63 541.83 C 682.02 542.20 680.49 542.20 678.05 541.83 C 699.29 518.58 700.16 494.24 695.81 464.54 Z" fill="#715337" fill-rule="nonzero" node-id="188" stroke="none" target-height="79.24899" target-width="26.315002" target-x="678.052" target-y="462.949"></path><path d="M 199.86 492.96 C 193.54 485.24 189.53 477.84 187.82 470.76 L 197.07 466.50 C 198.11 466.02 199.27 465.85 200.41 466.00 C 201.54 466.16 202.61 466.64 203.49 467.39 C 204.36 468.14 205.00 469.12 205.33 470.22 C 205.66 471.32 205.67 472.49 205.35 473.60 L 199.86 492.96 Z" fill="#fcd9c8" fill-rule="nonzero" node-id="190" stroke="none" target-height="27.109009" target-width="17.845001" target-x="187.821" target-y="465.847"></path><path d="M 15.65 469.20 C 22.09 473.38 24.55 479.59 23.02 487.83 C 22.90 488.50 23.00 489.18 23.30 489.79 C 23.59 490.40 24.07 490.90 24.67 491.22 C 26.35 492.10 28.80 492.22 32.04 491.58 C 33.26 492.89 33.66 494.44 33.23 496.20 C 24.08 494.77 19.67 499.33 20.00 509.89 C 20.73 532.13 23.07 551.32 27.00 567.46 C 27.52 569.66 26.82 570.14 24.90 568.92 C 21.94 567.06 19.15 566.00 16.52 565.72 C 7.52 533.41 7.23 501.24 15.65 469.20 Z" fill="#b4aaa6" fill-rule="nonzero" node-id="192" stroke="none" target-height="100.94101" target-width="26.421259" target-x="7.23424" target-y="469.204"></path><path d="M 643.45 475.56 C 645.92 475.29 645.94 478.19 643.50 484.26 C 642.80 486.00 643.39 486.85 645.28 486.82 C 651.36 486.73 655.35 490.33 657.27 497.62 L 649.95 510.89 L 646.25 512.50 C 645.44 512.82 644.54 512.87 643.68 512.63 L 626.61 507.69 C 625.58 507.39 624.61 506.91 623.73 506.27 C 621.32 504.47 616.70 503.66 609.86 503.85 L 643.45 475.56 Z" fill="#bb9a50" fill-rule="nonzero" node-id="194" stroke="none" target-height="37.580963" target-width="47.413025" target-x="609.862" target-y="475.29"></path><path d="M 543.69 480.64 C 560.74 502.03 582.80 509.77 609.86 503.85 C 616.70 503.67 621.32 504.47 623.73 506.27 C 624.61 506.91 625.57 507.39 626.61 507.69 L 643.68 512.63 C 644.54 512.87 645.44 512.82 646.25 512.50 L 649.95 510.90 L 651.74 511.22 C 653.29 511.46 654.42 510.88 655.12 509.48 L 662.40 495.52 C 665.42 492.53 666.99 491.64 667.11 492.86 C 663.33 505.65 655.99 517.53 645.10 528.51 C 631.00 542.76 613.20 549.92 591.69 549.98 C 556.36 550.07 532.57 532.31 520.30 496.71 C 521.58 488.69 529.38 483.33 543.69 480.64 Z" fill="#9e9149" fill-rule="nonzero" node-id="196" stroke="none" target-height="69.42502" target-width="146.81195" target-x="520.301" target-y="480.645"></path><path d="M 948.70 482.80 L 956.67 483.99 C 958.47 484.23 958.57 484.81 956.99 485.73 L 952.04 488.52 L 946.28 486.96 C 947.89 485.34 948.70 483.96 948.70 482.80 Z" fill="#bda194" fill-rule="nonzero" node-id="198" stroke="none" target-height="5.7210083" target-width="12.294983" target-x="946.278" target-y="482.796"></path><path d="M 391.11 551.81 C 368.45 547.92 334.22 523.39 352.85 497.17 C 373.35 481.61 409.14 491.40 431.20 498.86 C 452.57 506.05 445.38 531.76 430.05 540.64 C 423.04 544.70 410.05 548.42 391.11 551.81 Z M 439.30 516.57 C 440.03 500.74 401.95 496.07 391.11 496.48 C 389.61 496.54 388.62 497.17 388.13 498.36 C 387.22 500.71 388.00 502.11 390.47 502.57 C 401.73 504.70 413.49 506.52 425.75 508.01 C 431.70 508.71 435.16 511.64 436.14 516.80 C 436.23 517.17 436.44 517.50 436.75 517.73 C 437.06 517.96 437.44 518.07 437.82 518.04 C 438.20 518.01 438.56 517.85 438.83 517.58 C 439.10 517.31 439.27 516.95 439.30 516.57 Z M 362.87 506.41 C 373.73 519.50 386.71 522.26 401.82 514.69 C 403.65 513.81 403.62 512.97 401.73 512.18 C 389.67 507.17 377.10 504.47 364.01 504.08 C 361.91 504.02 361.53 504.79 362.87 506.41 Z" fill="#a8615d" fill-rule="nonzero" node-id="200" stroke="none" target-height="70.20303" target-width="118.34802" target-x="334.222" target-y="481.606"></path><path d="M 662.40 495.52 L 655.12 509.48 C 654.42 510.88 653.29 511.46 651.74 511.21 L 649.95 510.89 L 657.27 497.62 L 659.20 493.82 C 659.90 492.45 660.63 492.44 661.39 493.78 L 662.40 495.52 Z" fill="#715337" fill-rule="nonzero" node-id="202" stroke="none" target-height="19.02298" target-width="12.447998" target-x="649.952" target-y="492.437"></path><path d="M 33.23 496.20 C 34.69 494.71 37.06 494.53 40.32 495.65 L 51.67 497.49 C 52.22 499.80 51.38 501.10 49.16 501.38 L 35.38 499.82 C 35.06 499.79 34.73 499.82 34.42 499.91 C 34.11 500.01 33.82 500.17 33.58 500.37 C 33.33 500.58 33.13 500.83 33.00 501.11 C 32.86 501.39 32.78 501.70 32.77 502.02 L 31.58 525.17 C 31.49 526.88 32.30 527.80 34.01 527.92 L 57.21 529.29 L 57.35 532.91 C 55.39 532.82 54.71 533.00 55.29 533.46 C 31.83 531.02 25.27 532.71 35.61 538.54 C 25.05 570.66 32.36 595.82 57.53 614.00 C 60.32 629.42 75.88 646.45 74.05 657.25 C 47.20 632.02 28.03 601.51 16.52 565.72 C 19.15 566.00 21.94 567.06 24.90 568.92 C 26.82 570.14 27.52 569.66 27.00 567.46 C 23.07 551.32 20.74 532.13 20.00 509.89 C 19.67 499.33 24.08 494.77 33.23 496.20 Z" fill="#cec3b9" fill-rule="nonzero" node-id="204" stroke="none" target-height="162.724" target-width="59.356697" target-x="16.5249" target-y="494.526"></path><path d="M 391.11 496.48 C 401.95 496.07 440.03 500.74 439.30 516.57 C 439.27 516.95 439.10 517.31 438.83 517.58 C 438.56 517.85 438.20 518.01 437.82 518.04 C 437.44 518.07 437.06 517.96 436.75 517.73 C 436.44 517.50 436.23 517.17 436.14 516.80 C 435.16 511.64 431.70 508.71 425.75 508.01 C 413.49 506.52 401.73 504.70 390.47 502.57 C 388.00 502.11 387.22 500.70 388.13 498.36 C 388.62 497.17 389.61 496.54 391.11 496.48 Z" fill="#fba2b7" fill-rule="nonzero" node-id="206" stroke="none" target-height="21.999023" target-width="52.81201" target-x="387.218" target-y="496.068"></path><path d="M 51.67 497.49 C 77.21 498.04 99.68 507.00 122.97 510.44 C 136.43 512.41 149.38 515.29 163.02 516.43 C 183.20 518.17 182.24 542.93 172.86 553.82 C 152.35 577.62 126.21 584.96 94.42 575.84 C 81.83 572.22 74.46 563.25 65.31 554.37 C 64.15 553.24 63.85 551.92 64.39 550.39 C 66.26 545.42 70.25 543.05 76.38 543.30 C 78.22 543.36 79.13 542.47 79.13 540.64 L 79.13 539.00 C 79.13 537.62 78.46 536.81 77.12 536.57 L 57.35 532.91 L 57.21 529.29 C 66.94 530.76 74.98 528.87 81.33 523.62 C 82.43 522.67 82.75 521.53 82.29 520.18 C 80.09 513.63 75.55 510.12 68.65 509.66 C 67.43 509.60 66.26 509.15 65.31 508.38 C 60.76 504.75 55.38 502.41 49.15 501.38 C 51.38 501.10 52.22 499.81 51.67 497.49 Z" fill="#fcd9c8" fill-rule="nonzero" node-id="208" stroke="none" target-height="87.472015" target-width="134.04451" target-x="49.1545" target-y="497.486"></path><path d="M 49.15 501.38 C 55.38 502.41 60.76 504.75 65.31 508.38 C 66.26 509.15 67.43 509.60 68.65 509.66 C 75.55 510.12 80.09 513.63 82.29 520.18 C 82.75 521.53 82.43 522.67 81.33 523.62 C 74.98 528.87 66.94 530.76 57.21 529.29 L 34.01 527.92 C 32.30 527.80 31.49 526.88 31.58 525.17 L 32.77 502.02 C 32.78 501.70 32.86 501.39 33.00 501.11 C 33.13 500.83 33.33 500.58 33.58 500.37 C 33.82 500.17 34.11 500.01 34.42 499.92 C 34.73 499.82 35.05 499.79 35.38 499.82 L 49.15 501.38 Z" fill="#fcecdc" fill-rule="nonzero" node-id="210" stroke="none" target-height="30.969025" target-width="51.256397" target-x="31.4892" target-y="499.788"></path><path d="M 362.87 506.41 C 361.53 504.79 361.91 504.01 364.01 504.08 C 377.10 504.47 389.67 507.17 401.73 512.18 C 403.62 512.97 403.65 513.81 401.82 514.69 C 386.71 522.26 373.73 519.50 362.87 506.41 Z" fill="#fcecdc" fill-rule="nonzero" node-id="212" stroke="none" target-height="18.244995" target-width="42.118988" target-x="361.528" target-y="504.015"></path><path d="M 703.27 503.39 C 705.77 525.82 698.89 538.63 682.63 541.83 C 684.15 538.41 687.27 535.33 691.97 532.59 C 693.34 531.79 694.27 530.65 694.76 529.16 L 703.27 503.39 Z" fill="#aaa1a1" fill-rule="nonzero" node-id="214" stroke="none" target-height="38.441956" target-width="23.140991" target-x="682.629" target-y="503.39"></path><path d="M 35.61 538.54 L 57.53 614.00 C 32.36 595.82 25.05 570.66 35.61 538.54 Z" fill="#e1dbd1" fill-rule="nonzero" node-id="216" stroke="none" target-height="75.466" target-width="32.4778" target-x="25.0525" target-y="538.537"></path><path d="M 654.58 555.10 C 650.73 557.76 651.68 558.00 657.41 555.84 C 658.66 561.36 662.80 562.91 669.81 560.50 C 671.03 560.11 672.29 559.91 673.57 559.91 L 797.63 560.37 C 798.17 560.35 798.69 560.56 799.08 560.93 C 799.46 561.30 799.67 561.82 799.67 562.36 C 799.67 562.90 799.46 563.42 799.08 563.81 C 798.69 564.20 798.17 564.43 797.63 564.44 L 765.23 564.85 C 763.62 564.88 762.23 565.48 761.07 566.64 L 760.15 567.50 C 759.12 568.57 759.33 569.09 760.79 569.06 C 762.50 569.06 763.80 569.81 764.68 571.30 C 769.08 578.96 768.77 584.15 763.77 586.86 C 762.99 587.30 762.38 587.98 762.01 588.79 C 761.65 589.60 761.55 590.51 761.74 591.38 C 761.93 592.25 762.39 593.04 763.06 593.62 C 763.73 594.21 764.57 594.57 765.46 594.64 L 813.42 598.03 C 814.77 598.12 815.25 598.81 814.89 600.09 C 814.74 600.58 814.58 601.07 814.43 601.55 C 814.34 601.80 814.16 601.90 813.88 601.88 C 800.30 600.41 786.70 599.97 773.06 600.55 C 771.20 600.64 770.38 601.60 770.59 603.43 L 771.50 611.30 C 771.72 612.98 771.18 614.37 769.90 615.47 C 765.72 619.10 763.80 623.86 764.13 629.75 C 764.20 630.81 764.75 631.48 765.78 631.76 L 789.81 638.39 C 790.97 638.73 791.49 639.49 791.37 640.68 C 790.88 645.05 788.12 646.78 783.08 645.90 C 756.84 641.23 737.00 637.83 723.54 635.70 C 698.74 631.76 676.13 636.70 651.55 618.35 C 630.82 602.88 614.94 588.19 631.78 561.65 C 631.89 561.47 631.93 561.25 631.91 561.04 C 631.88 560.83 631.79 560.63 631.65 560.48 C 631.51 560.33 631.33 560.23 631.13 560.20 C 630.93 560.17 630.72 560.22 630.55 560.32 L 628.90 561.28 C 627.77 561.95 627.30 561.63 627.48 560.32 C 629.82 545.17 646.06 552.17 654.58 555.10 Z" fill="#fcd9c8" fill-rule="nonzero" node-id="218" stroke="none" target-height="101.612976" target-width="200.31104" target-x="614.943" target-y="545.172"></path><path d="M 391.61 554.28 C 404.84 556.71 410.97 573.91 416.10 584.90 L 439.57 611.49 C 440.94 613.01 440.69 614.15 438.79 614.92 L 434.58 616.66 L 406.76 583.71 C 406.24 583.09 405.59 582.61 404.86 582.28 C 404.12 581.96 403.31 581.80 402.50 581.83 C 381.95 582.47 365.16 602.56 379.53 623.84 C 383.46 641.78 395.09 682.97 419.16 658.12 C 396.92 702.33 373.76 623.93 370.24 613.13 C 369.72 611.55 368.65 610.51 367.04 610.02 C 363.65 608.98 359.88 609.11 355.73 610.39 C 354.11 610.91 352.88 610.49 352.02 609.15 C 351.17 607.78 351.44 606.70 352.85 605.90 C 367.54 597.53 378.57 554.42 391.61 554.28 Z" fill="#2e1e1b" fill-rule="nonzero" node-id="220" stroke="none" target-height="148.04797" target-width="89.774994" target-x="351.17" target-y="554.28"></path><path d="M 872.96 569.25 C 874.06 573.73 875.25 577.02 872.64 581.19 C 856.99 606.12 840.09 629.55 821.93 651.48 C 817.05 651.85 813.62 650.29 811.64 646.82 C 810.85 645.47 810.63 644.05 811.00 642.56 C 816.92 617.45 820.47 592.07 821.66 566.41 C 821.69 565.19 822.32 564.53 823.54 564.44 C 841.14 563.34 857.62 564.94 872.96 569.25 Z" fill="#fbf1e1" fill-rule="nonzero" node-id="222" stroke="none" target-height="88.507996" target-width="64.61896" target-x="810.632" target-y="563.342"></path><path d="M 434.58 616.66 C 433.36 618.55 431.93 619.57 430.28 619.72 C 427.50 616.58 424.79 615.70 422.14 617.07 C 420.85 617.71 419.51 617.95 418.11 617.80 C 405.84 616.46 392.98 618.47 379.53 623.84 C 365.16 602.56 381.95 582.47 402.50 581.83 C 403.31 581.80 404.12 581.96 404.86 582.28 C 405.59 582.61 406.24 583.09 406.76 583.71 L 434.58 616.66 Z" fill="#c6626b" fill-rule="nonzero" node-id="224" stroke="none" target-height="42.039978" target-width="69.42502" target-x="365.159" target-y="581.802"></path><path d="M 430.28 619.72 C 425.92 622.47 424.97 626.24 427.44 631.03 C 428.18 632.43 428.27 633.88 427.72 635.38 L 419.16 658.12 C 395.09 682.97 383.47 641.78 379.53 623.84 C 392.99 618.47 405.84 616.46 418.11 617.80 C 419.51 617.95 420.86 617.71 422.14 617.07 C 424.79 615.70 427.51 616.58 430.28 619.72 Z" fill="#fba2b7" fill-rule="nonzero" node-id="226" stroke="none" target-height="67.27399" target-width="50.75299" target-x="379.53" target-y="615.696"></path><path d="M 36.84 643.15 C 38.64 643.61 39.19 645.08 38.49 647.55 C 38.06 649.01 38.06 650.46 38.49 651.90 C 42.85 667.21 50.42 677.48 61.19 682.70 C 84.23 712.11 113.39 733.69 148.69 747.45 C 149.46 748.25 148.66 749.02 146.31 749.79 C 131.27 746.03 116.90 739.57 103.20 730.38 L 74.10 706.54 C 71.14 704.13 70.54 704.62 72.31 708.00 C 77.13 717.25 84.33 724.95 93.91 731.12 C 95.29 732.00 97.07 731.95 99.27 730.98 C 117.48 747.73 136.60 762.39 156.61 774.96 C 157.37 776.21 156.72 778.19 154.64 780.91 C 153.45 782.46 153.77 783.56 155.60 784.20 C 170.13 789.39 180.41 796.80 186.45 806.44 C 191.57 825.39 195.83 843.66 199.22 861.27 C 199.46 862.55 200.51 862.84 202.38 862.14 C 202.41 863.66 201.75 864.50 200.41 864.66 C 198.70 864.87 197.68 864.14 197.34 862.46 C 196.24 856.97 195.07 853.46 193.82 851.93 C 190.92 848.30 188.13 848.09 185.44 851.29 C 184.59 846.56 183.46 843.97 182.06 843.51 L 172.08 800.72 C 171.71 799.14 170.81 797.96 169.38 797.20 C 109.06 765.01 64.07 718.12 34.42 656.52 C 32.56 652.64 31.12 648.49 30.12 644.07 C 29.63 642.03 30.39 641.29 32.41 641.87 L 36.84 643.15 Z" fill="#412d27" fill-rule="nonzero" node-id="228" stroke="none" target-height="223.57501" target-width="172.7764" target-x="29.6286" target-y="641.294"></path><path d="M 41.05 641.32 C 45.66 650.97 52.65 659.08 62.01 665.67 C 58.32 665.34 56.11 666.30 55.38 668.55 C 54.89 670.02 55.27 671.22 56.52 672.17 C 60.06 674.88 61.62 678.39 61.19 682.70 C 50.42 677.48 42.85 667.21 38.49 651.90 C 38.06 650.46 38.06 649.01 38.49 647.55 C 39.19 645.08 38.64 643.61 36.84 643.15 C 38.46 643.06 39.86 642.45 41.05 641.32 Z" fill="#715337" fill-rule="nonzero" node-id="230" stroke="none" target-height="41.371033" target-width="25.170498" target-x="36.844" target-y="641.324"></path><path d="M 870.22 667.64 L 822.71 737.80 C 819.63 731.91 814.25 728.37 806.56 727.18 C 805.90 727.07 805.22 727.15 804.61 727.41 C 803.99 727.67 803.46 728.10 803.08 728.64 C 798.78 734.75 793.36 736.00 786.83 732.40 C 785.25 731.51 783.57 730.86 781.80 730.43 L 760.66 725.49 C 760.21 725.38 759.74 725.38 759.28 725.46 C 758.83 725.54 758.39 725.71 758.01 725.96 C 757.62 726.21 757.29 726.54 757.03 726.92 C 756.76 727.30 756.58 727.73 756.49 728.19 C 756.03 730.35 757.21 731.73 760.02 732.30 C 766.70 733.71 771.43 737.51 774.20 743.70 C 774.84 745.07 774.60 746.28 773.47 747.32 C 761.57 758.16 750.77 769.74 736.90 778.16 C 701.16 799.76 650.59 819.07 639.61 861.77 C 632.65 888.68 618.42 883.47 598.79 891.75 C 597.35 892.36 595.92 892.37 594.49 891.79 C 590.88 890.36 587.48 890.56 584.28 892.39 C 583.18 893.03 582.07 893.06 580.94 892.48 L 575.77 889.69 C 574.58 889.05 574.46 888.24 575.40 887.26 L 576.54 886.16 C 576.80 885.90 576.97 885.58 577.06 885.23 C 577.15 884.87 577.15 884.50 577.05 884.15 C 570.09 861.86 544.92 870.92 550.87 840.63 C 565.58 831.32 597.40 812.94 646.34 785.48 C 683.47 764.61 722.55 736.01 763.59 699.67 C 775.16 708.97 790.40 698.90 802.12 693.91 C 832.20 691.35 856.44 679.32 874.84 657.85 C 875.00 657.64 875.23 657.52 875.48 657.49 C 875.73 657.46 875.99 657.53 876.19 657.68 C 876.39 657.84 876.52 658.07 876.55 658.33 C 876.58 658.58 876.51 658.84 876.35 659.03 L 870.22 667.64 Z" fill="#d7cab8" fill-rule="nonzero" node-id="232" stroke="none" target-height="235.604" target-width="331.65698" target-x="544.922" target-y="657.456"></path><path d="M 62.01 665.67 C 75.99 670.03 88.65 677.24 100.00 687.27 C 113.96 703.47 126.91 721.41 144.21 734.41 C 149.55 738.41 154.40 742.85 158.76 747.73 C 154.79 746.57 151.44 746.48 148.69 747.45 C 113.39 733.69 84.23 712.11 61.19 682.70 C 61.62 678.39 60.06 674.88 56.52 672.17 C 55.27 671.22 54.89 670.02 55.38 668.55 C 56.11 666.30 58.32 665.34 62.01 665.67 Z" fill="#cec3b9" fill-rule="nonzero" node-id="234" stroke="none" target-height="82.39099" target-width="103.8703" target-x="54.8907" target-y="665.336"></path><path d="M 870.22 667.64 C 874.58 667.67 876.29 668.39 875.34 669.79 L 856.26 704.80 C 855.28 706.60 855.82 707.59 857.86 707.77 C 878.41 709.51 887.10 701.78 905.18 694.64 C 930.03 684.75 946.69 696.33 942.85 724.25 C 939.03 752.26 926.13 774.82 904.13 791.93 C 904.89 792.15 904.66 792.94 903.44 794.32 C 902.68 795.20 902.63 796.10 903.30 797.01 L 904.13 798.11 L 894.24 796.79 C 891.77 796.45 891.33 795.31 892.92 793.35 L 897.63 787.59 C 918.89 767.05 931.45 743.11 935.29 715.74 C 935.60 713.69 935.40 711.74 934.70 709.88 C 925.50 685.76 899.74 704.62 888.29 713.86 L 855.39 715.69 C 853.86 715.75 852.66 716.42 851.77 717.71 C 829.08 750.08 803.32 780.08 774.52 807.72 C 767.96 807.02 765.63 808.06 767.52 810.84 C 738.11 835.88 705.07 853.38 668.39 863.33 C 668.27 863.36 668.17 863.36 668.08 863.33 C 667.98 863.30 667.88 863.25 667.75 863.19 C 667.42 863.04 667.43 862.90 667.80 862.78 C 733.79 840.03 780.56 792.35 822.71 737.80 L 870.22 667.64 Z" fill="#2e1e1b" fill-rule="nonzero" node-id="236" stroke="none" target-height="195.72003" target-width="279.271" target-x="667.419" target-y="667.639"></path><path d="M 897.63 787.59 C 909.99 768.25 918.21 749.10 922.30 730.15 C 922.63 728.72 923.43 727.65 924.68 726.95 C 930.02 723.93 931.31 718.30 928.57 710.06 C 928.02 708.42 926.89 707.52 925.18 707.36 C 911.96 705.99 898.32 720.09 888.29 713.86 C 899.74 704.62 925.50 685.76 934.70 709.88 C 935.40 711.74 935.60 713.69 935.29 715.74 C 931.45 743.11 918.90 767.06 897.63 787.59 Z" fill="#fbf1e1" fill-rule="nonzero" node-id="238" stroke="none" target-height="101.826965" target-width="47.30597" target-x="888.294" target-y="685.762"></path><path d="M 103.20 730.38 C 102.53 730.84 101.22 731.04 99.27 730.98 C 97.07 731.95 95.29 732.00 93.91 731.12 C 84.33 724.95 77.13 717.25 72.31 708.00 C 70.54 704.62 71.14 704.13 74.10 706.54 L 103.20 730.38 Z" fill="#715337" fill-rule="nonzero" node-id="240" stroke="none" target-height="27.869995" target-width="32.661003" target-x="70.542" target-y="704.129"></path><path d="M 897.63 787.59 L 892.92 793.35 C 891.33 795.31 891.77 796.45 894.24 796.79 L 904.13 798.11 L 922.48 800.31 C 923.05 800.39 923.57 800.65 923.97 801.06 C 924.37 801.47 924.63 802.00 924.70 802.56 C 924.77 803.13 924.66 803.70 924.37 804.20 C 924.09 804.69 923.65 805.08 923.12 805.30 C 914.12 808.78 905.00 812.58 895.75 816.70 C 867.79 829.23 836.99 830.24 806.74 827.45 C 806.50 826.35 806.92 825.05 808.02 823.56 C 836.35 809.55 862.07 787.82 864.77 754.00 C 865.23 748.32 863.67 741.09 864.95 734.32 C 865.35 732.18 864.89 730.40 863.58 728.96 C 862.15 727.41 861.60 727.67 861.93 729.74 C 869.62 775.96 840.65 807.82 800.70 823.97 C 799.60 824.58 798.96 825.12 798.78 825.57 L 775.94 824.61 L 773.70 824.75 L 774.52 807.73 C 803.33 780.08 829.08 750.08 851.77 717.71 C 852.66 716.42 853.86 715.75 855.39 715.69 L 888.29 713.86 C 898.32 720.09 911.95 705.99 925.18 707.36 C 926.89 707.51 928.02 708.42 928.57 710.06 C 931.31 718.30 930.02 723.93 924.68 726.95 C 923.43 727.65 922.63 728.72 922.30 730.15 C 918.21 749.10 909.99 768.25 897.63 787.59 Z" fill="#cec3b9" fill-rule="nonzero" node-id="242" stroke="none" target-height="124.25104" target-width="157.61298" target-x="773.7" target-y="705.99"></path><path d="M 822.71 737.80 C 780.56 792.35 733.79 840.03 667.80 862.78 C 667.43 862.90 667.42 863.04 667.75 863.19 C 667.88 863.25 667.98 863.30 668.08 863.33 C 668.17 863.36 668.27 863.36 668.39 863.33 C 705.07 853.38 738.11 835.88 767.52 810.84 C 754.43 860.81 702.63 949.37 641.71 943.00 C 642.84 935.44 642.31 929.00 640.11 923.69 C 639.20 921.52 638.51 921.59 638.05 923.88 C 636.77 930.16 634.44 935.45 631.05 939.75 C 619.79 946.62 611.88 941.13 602.08 944.93 C 600.28 945.63 599.87 945.15 600.85 943.51 C 605.67 935.27 607.92 926.19 607.62 916.28 C 607.58 915.76 607.35 915.27 606.98 914.91 C 606.60 914.55 606.11 914.33 605.59 914.31 C 605.07 914.28 604.56 914.44 604.15 914.76 C 603.74 915.08 603.46 915.54 603.36 916.05 C 601.30 929.50 598.79 948.68 579.29 944.61 C 559.80 940.81 567.58 909.50 573.57 896.10 C 573.60 896.03 573.60 895.96 573.58 895.89 C 573.56 895.82 573.52 895.76 573.46 895.72 C 573.40 895.67 573.33 895.65 573.26 895.65 C 573.19 895.66 573.12 895.68 573.07 895.73 C 558.01 911.43 565.15 921.13 564.05 939.16 C 563.96 940.59 563.18 941.31 561.72 941.31 C 517.37 941.08 527.76 891.15 533.34 864.52 C 533.53 863.66 533.24 863.47 532.47 863.92 C 532.08 864.20 531.79 864.59 531.61 865.11 C 529.07 871.83 526.98 878.66 525.34 885.62 C 524.97 887.14 523.99 887.97 522.41 888.09 C 458.61 892.39 398.80 885.89 335.64 878.93 C 333.96 878.75 333.70 879.25 334.86 880.44 C 353.35 899.85 295.87 918.57 284.80 919.80 C 290.41 913.79 293.02 906.85 292.62 898.98 C 292.53 897.45 291.87 896.23 290.65 895.32 L 287.77 893.21 C 287.46 892.99 287.22 892.70 287.06 892.35 C 286.91 892.01 286.85 891.63 286.88 891.25 C 286.92 890.88 287.06 890.52 287.28 890.21 C 287.50 889.90 287.79 889.66 288.14 889.50 C 292.26 887.58 294.00 884.70 293.35 880.86 C 293.02 878.96 293.63 878.58 295.19 879.71 C 298.14 881.88 300.77 882.18 303.06 880.63 C 303.24 882.30 303.36 883.14 303.42 883.14 C 304.43 883.09 305.39 882.72 306.18 882.10 C 306.97 881.48 307.55 880.64 307.85 879.68 C 308.15 878.72 308.15 877.69 307.85 876.73 C 307.55 875.77 306.96 874.93 306.17 874.31 C 282.10 855.78 227.64 837.01 202.37 862.14 C 200.51 862.84 199.46 862.55 199.22 861.27 C 195.83 843.66 191.57 825.39 186.45 806.44 C 192.76 806.57 198.91 808.43 204.89 812.03 C 205.22 812.23 205.60 812.31 205.98 812.27 C 206.36 812.23 206.72 812.06 207.00 811.80 L 208.14 810.65 C 208.30 810.49 208.41 810.29 208.47 810.07 C 208.53 809.85 208.54 809.62 208.48 809.40 C 208.43 809.18 208.32 808.98 208.16 808.81 C 208.00 808.65 207.81 808.52 207.59 808.46 C 195.60 804.49 188.97 798.17 187.68 789.51 C 288.82 837.38 390.42 869.41 497.28 857.06 C 519.11 854.54 532.98 856.78 550.87 840.63 C 544.92 870.92 570.09 861.86 577.05 884.15 C 577.15 884.50 577.15 884.87 577.06 885.22 C 576.97 885.58 576.80 885.90 576.55 886.16 L 575.40 887.26 C 574.46 888.24 574.58 889.05 575.77 889.69 L 580.94 892.48 C 582.07 893.06 583.18 893.03 584.28 892.39 C 587.48 890.56 590.88 890.36 594.49 891.79 C 595.92 892.37 597.35 892.36 598.79 891.75 C 618.42 883.46 632.65 888.68 639.61 861.77 C 650.59 819.07 701.16 799.76 736.90 778.16 C 750.77 769.74 761.57 758.16 773.47 747.32 C 774.60 746.28 774.84 745.07 774.20 743.70 C 771.43 737.51 766.70 733.71 760.02 732.30 C 757.21 731.72 756.03 730.35 756.49 728.18 C 756.58 727.73 756.77 727.30 757.03 726.92 C 757.29 726.54 757.62 726.21 758.01 725.96 C 758.40 725.71 758.83 725.54 759.28 725.46 C 759.74 725.38 760.21 725.38 760.66 725.49 L 781.80 730.43 C 783.57 730.86 785.25 731.51 786.83 732.40 C 793.36 736.00 798.78 734.75 803.08 728.64 C 803.46 728.09 803.99 727.66 804.61 727.41 C 805.22 727.15 805.90 727.07 806.56 727.18 C 814.25 728.37 819.63 731.91 822.71 737.80 Z" fill="#cec3b9" fill-rule="nonzero" node-id="244" stroke="none" target-height="223.98999" target-width="636.265" target-x="186.448" target-y="725.375"></path><path d="M 808.02 823.56 C 804.88 824.75 802.44 824.89 800.70 823.97 C 840.65 807.82 869.62 775.96 861.93 729.74 C 861.60 727.67 862.15 727.41 863.58 728.96 C 864.89 730.40 865.35 732.18 864.95 734.32 C 863.67 741.09 865.23 748.32 864.77 754.00 C 862.07 787.82 836.35 809.56 808.02 823.56 Z" fill="#412d27" fill-rule="nonzero" node-id="246" stroke="none" target-height="97.479004" target-width="68.922" target-x="800.7" target-y="727.408"></path><path d="M 99.27 730.98 C 101.22 731.04 102.53 730.84 103.20 730.38 C 116.90 739.57 131.27 746.03 146.31 749.79 L 166.26 755.55 L 163.43 756.24 C 162.68 756.42 162.00 756.85 161.51 757.45 C 161.01 758.04 160.72 758.78 160.68 759.56 C 160.64 760.33 160.85 761.10 161.28 761.75 C 161.71 762.39 162.33 762.88 163.06 763.15 L 166.31 764.34 C 167.50 764.77 167.78 765.53 167.13 766.63 L 166.45 767.73 C 165.50 769.34 165.75 770.75 167.18 771.94 C 170.14 774.38 171.99 777.84 172.72 782.33 L 156.61 774.96 C 136.59 762.39 117.48 747.73 99.27 730.98 Z" fill="#cec3b9" fill-rule="nonzero" node-id="248" stroke="none" target-height="51.942993" target-width="73.4516" target-x="99.2664" target-y="730.382"></path><path d="M 148.69 747.45 C 151.44 746.48 154.79 746.57 158.76 747.73 L 190.11 762.74 C 190.25 762.81 190.36 762.94 190.41 763.10 C 190.47 763.25 190.47 763.42 190.41 763.57 C 190.35 763.72 190.24 763.83 190.10 763.89 C 189.96 763.95 189.80 763.94 189.65 763.88 L 166.27 755.55 L 146.31 749.79 C 148.66 749.02 149.46 748.25 148.69 747.45 Z" fill="#bda194" fill-rule="nonzero" node-id="250" stroke="none" target-height="17.471008" target-width="44.158005" target-x="146.312" target-y="746.476"></path><path d="M 156.61 774.96 L 172.72 782.33 L 187.68 789.51 C 188.97 798.17 195.60 804.49 207.59 808.46 C 207.81 808.52 208.00 808.65 208.16 808.81 C 208.32 808.98 208.43 809.18 208.48 809.40 C 208.54 809.62 208.53 809.85 208.47 810.07 C 208.41 810.29 208.30 810.49 208.14 810.65 L 207.00 811.80 C 206.72 812.06 206.36 812.23 205.98 812.27 C 205.60 812.31 205.22 812.23 204.89 812.03 C 198.91 808.43 192.76 806.57 186.45 806.44 C 180.41 796.80 170.13 789.39 155.60 784.20 C 153.77 783.56 153.45 782.46 154.64 780.91 C 156.72 778.19 157.37 776.21 156.61 774.96 Z" fill="#715337" fill-rule="nonzero" node-id="252" stroke="none" target-height="37.352966" target-width="55.085007" target-x="153.452" target-y="774.958"></path><path d="M 904.13 791.94 C 914.08 792.67 922.60 795.67 929.71 800.95 C 930.31 801.39 930.78 801.98 931.10 802.65 C 931.41 803.32 931.55 804.06 931.50 804.81 C 931.46 805.55 931.23 806.27 930.84 806.91 C 930.44 807.55 929.90 808.08 929.25 808.46 L 895.57 827.86 C 858.44 838.26 820.00 838.72 780.25 829.23 C 775.67 828.14 774.23 826.60 775.94 824.61 L 798.78 825.57 C 801.92 828.04 804.58 828.67 806.74 827.45 C 836.99 830.24 867.79 829.23 895.75 816.70 C 905.00 812.58 914.12 808.78 923.12 805.30 C 923.65 805.08 924.09 804.69 924.37 804.20 C 924.66 803.70 924.77 803.13 924.70 802.56 C 924.63 802.00 924.37 801.47 923.97 801.06 C 923.57 800.65 923.05 800.39 922.48 800.31 L 904.13 798.11 L 903.31 797.02 C 902.63 796.10 902.68 795.20 903.44 794.32 C 904.66 792.94 904.89 792.15 904.13 791.94 Z" fill="#412d27" fill-rule="nonzero" node-id="254" stroke="none" target-height="46.78705" target-width="157.31299" target-x="774.234" target-y="791.936"></path><path d="M 774.52 807.73 L 773.70 824.75 C 753.56 887.36 701.62 956.46 627.16 949.14 L 574.53 949.05 C 576.70 947.98 578.28 946.50 579.29 944.61 C 598.79 948.68 601.30 929.50 603.36 916.05 C 603.46 915.54 603.74 915.08 604.15 914.76 C 604.56 914.44 605.07 914.28 605.59 914.31 C 606.11 914.34 606.60 914.55 606.98 914.91 C 607.35 915.27 607.58 915.76 607.62 916.28 C 607.92 926.19 605.67 935.27 600.85 943.51 C 599.87 945.16 600.28 945.63 602.08 944.93 C 611.88 941.13 619.79 946.62 631.05 939.76 C 636.09 942.35 639.64 943.43 641.72 943.00 C 702.63 949.37 754.43 860.81 767.52 810.84 C 765.63 808.06 767.96 807.02 774.52 807.73 Z" fill="#412d27" fill-rule="nonzero" node-id="256" stroke="none" target-height="149.43701" target-width="199.992" target-x="574.532" target-y="807.023"></path><path d="M 895.39 938.20 C 905.91 905.16 911.77 872.45 912.96 840.08 C 913.02 838.55 912.56 837.23 911.59 836.10 C 909.33 833.44 908.00 830.56 907.61 827.45 C 940.56 813.90 990.07 816.60 1011.26 849.60 C 1016.48 857.74 1020.43 865.81 1023.12 873.81 C 1035.24 909.87 918.96 933.62 895.39 938.20 Z" fill="#d7cab8" fill-rule="nonzero" node-id="258" stroke="none" target-height="124.297" target-width="139.85297" target-x="895.387" target-y="813.902"></path><path d="M 808.02 823.56 C 806.92 825.05 806.50 826.35 806.74 827.45 C 804.58 828.67 801.92 828.04 798.78 825.57 C 798.96 825.12 799.60 824.58 800.70 823.97 C 802.44 824.89 804.88 824.75 808.02 823.56 Z" fill="#aaa1a1" fill-rule="nonzero" node-id="260" stroke="none" target-height="5.1099854" target-width="9.244019" target-x="798.779" target-y="823.559"></path><path d="M 773.70 824.75 L 775.94 824.61 C 774.23 826.59 775.67 828.13 780.24 829.23 C 820.00 838.72 858.44 838.26 895.57 827.86 L 896.94 829.92 C 897.92 831.35 899.19 831.69 900.74 830.93 L 907.61 827.45 C 908.00 830.56 909.33 833.44 911.59 836.10 C 912.57 837.23 913.02 838.55 912.96 840.08 C 911.77 872.45 905.91 905.16 895.39 938.20 C 805.93 954.46 713.06 964.24 616.77 967.53 C 621.01 965.98 623.01 963.20 622.77 959.21 C 622.68 957.77 623.12 956.54 624.10 955.50 C 625.53 953.97 626.55 951.85 627.16 949.14 C 701.62 956.46 753.56 887.36 773.70 824.75 Z" fill="#d9c6b9" fill-rule="nonzero" node-id="262" stroke="none" target-height="142.92297" target-width="296.24896" target-x="616.773" target-y="824.611"></path><path d="M 182.06 843.51 C 183.46 843.97 184.59 846.56 185.44 851.29 C 189.65 881.54 197.25 908.96 225.72 922.14 C 210.38 931.15 223.75 941.63 230.15 949.55 C 205.53 945.25 25.68 914.26 129.11 859.76 C 130.08 859.24 131.01 858.19 131.90 856.60 C 132.63 855.26 133.73 854.30 135.19 853.72 C 150.48 847.55 166.10 844.15 182.06 843.51 Z" fill="#bdb3b0" fill-rule="nonzero" node-id="264" stroke="none" target-height="106.03601" target-width="204.47621" target-x="25.6778" target-y="843.513"></path><path d="M 202.38 862.14 C 227.64 837.01 282.10 855.78 306.17 874.31 C 306.96 874.93 307.55 875.77 307.85 876.73 C 308.15 877.69 308.15 878.72 307.85 879.68 C 307.55 880.64 306.97 881.48 306.18 882.10 C 305.39 882.72 304.43 883.09 303.42 883.14 C 303.36 883.14 303.24 882.30 303.06 880.63 C 303.79 878.95 303.42 877.56 301.96 876.46 C 280.79 860.45 256.83 852.88 230.11 853.76 C 183.93 855.27 204.62 904.56 230.47 917.93 C 230.88 918.14 231.35 918.21 231.80 918.14 C 232.25 918.07 232.67 917.85 233.00 917.52 C 233.32 917.20 233.53 916.77 233.59 916.32 C 233.66 915.87 233.57 915.40 233.36 915.00 C 228.55 906.16 223.61 890.56 234.27 883.42 C 235.55 882.57 235.97 882.88 235.51 884.38 C 232.09 895.91 233.66 906.85 240.22 917.19 C 240.92 918.32 241.93 919.01 243.24 919.25 L 254.59 921.31 C 256.03 921.59 257.05 921.07 257.66 919.76 C 262.14 910.33 263.64 900.35 262.14 889.83 C 261.96 888.51 262.46 888.15 263.65 888.73 C 272.21 892.98 268.09 908.41 266.08 920.21 C 265.77 922.14 266.58 922.93 268.50 922.59 L 284.80 919.80 C 295.87 918.57 353.35 899.85 334.86 880.45 C 333.70 879.25 333.96 878.75 335.64 878.93 C 398.80 885.89 458.61 892.39 522.41 888.09 C 523.99 887.97 524.97 887.14 525.34 885.62 C 526.98 878.66 529.07 871.83 531.61 865.11 C 531.79 864.60 532.08 864.20 532.48 863.92 C 533.24 863.47 533.53 863.66 533.34 864.52 C 527.76 891.15 517.37 941.08 561.72 941.31 C 563.18 941.31 563.96 940.60 564.05 939.16 C 565.15 921.13 558.01 911.43 573.07 895.73 C 573.12 895.68 573.19 895.66 573.26 895.65 C 573.34 895.65 573.40 895.67 573.46 895.72 C 573.52 895.76 573.56 895.82 573.58 895.89 C 573.60 895.96 573.60 896.03 573.57 896.10 C 567.58 909.50 559.80 940.81 579.29 944.61 C 578.28 946.50 576.70 947.98 574.53 949.05 C 565.84 946.12 555.68 945.75 548.45 943.14 C 527.18 935.42 518.75 919.28 523.14 894.72 C 523.44 892.98 522.73 892.22 520.99 892.43 C 463.81 898.96 406.96 897.12 350.42 886.90 C 345.79 886.07 342.84 887.92 341.59 892.43 C 337.79 905.98 321.36 913.49 306.90 919.39 C 280.81 930.07 253.75 930.98 225.72 922.14 C 197.25 908.96 189.65 881.54 185.44 851.29 C 188.13 848.09 190.92 848.30 193.82 851.93 C 195.07 853.46 196.24 856.97 197.34 862.46 C 197.68 864.14 198.70 864.87 200.41 864.66 C 201.75 864.50 202.41 863.66 202.38 862.14 Z" fill="#170f0a" fill-rule="nonzero" node-id="266" stroke="none" target-height="112.03204" target-width="395.361" target-x="183.931" target-y="837.014"></path><path d="M 303.06 880.63 C 300.77 882.18 298.14 881.88 295.19 879.71 C 293.63 878.58 293.02 878.96 293.36 880.86 C 294.00 884.70 292.26 887.58 288.14 889.50 C 287.79 889.66 287.50 889.90 287.28 890.21 C 287.06 890.52 286.92 890.88 286.88 891.25 C 286.85 891.63 286.91 892.01 287.07 892.35 C 287.22 892.70 287.46 892.99 287.77 893.21 L 290.65 895.32 C 291.88 896.23 292.53 897.45 292.62 898.98 C 293.02 906.85 290.41 913.79 284.80 919.80 L 268.50 922.59 C 266.58 922.93 265.77 922.13 266.08 920.21 C 268.09 908.41 272.21 892.98 263.65 888.73 C 262.46 888.15 261.96 888.51 262.14 889.83 C 263.64 900.35 262.14 910.33 257.66 919.76 C 257.05 921.07 256.03 921.59 254.59 921.31 L 243.24 919.25 C 241.93 919.01 240.92 918.32 240.22 917.19 C 233.66 906.85 232.09 895.91 235.51 884.38 C 235.97 882.88 235.55 882.56 234.27 883.42 C 223.61 890.56 228.55 906.16 233.36 915.00 C 233.57 915.40 233.66 915.87 233.59 916.32 C 233.53 916.77 233.32 917.20 233.00 917.52 C 232.67 917.85 232.25 918.07 231.80 918.14 C 231.35 918.21 230.88 918.14 230.47 917.92 C 204.62 904.56 183.93 855.27 230.11 853.76 C 256.83 852.88 280.79 860.45 301.96 876.46 C 303.42 877.56 303.79 878.95 303.06 880.63 Z" fill="#fdfbf5" fill-rule="nonzero" node-id="268" stroke="none" target-height="70.051025" target-width="119.856995" target-x="183.932" target-y="852.878"></path><path d="M 574.53 949.05 L 627.16 949.14 C 626.55 951.85 625.53 953.97 624.10 955.50 C 623.12 956.54 622.68 957.77 622.77 959.21 C 623.01 963.20 621.01 965.98 616.77 967.53 C 486.21 974.31 358.94 970.51 230.15 949.55 C 223.75 941.63 210.38 931.15 225.71 922.14 C 253.75 930.98 280.81 930.07 306.90 919.39 C 321.36 913.49 337.79 905.98 341.59 892.43 C 342.84 887.92 345.79 886.07 350.42 886.90 C 406.96 897.12 463.81 898.96 520.99 892.43 C 522.73 892.22 523.44 892.98 523.14 894.72 C 518.75 919.28 527.18 935.42 548.45 943.14 C 555.68 945.75 565.84 946.12 574.53 949.05 Z" fill="#b4aaa6" fill-rule="nonzero" node-id="270" stroke="none" target-height="88.234985" target-width="416.778" target-x="210.383" target-y="886.073"></path><path d="M 641.72 943.00 C 639.64 943.43 636.09 942.35 631.05 939.75 C 634.44 935.45 636.77 930.16 638.05 923.88 C 638.51 921.59 639.20 921.53 640.11 923.69 C 642.31 929.00 642.84 935.44 641.72 943.00 Z" fill="#4e423d" fill-rule="nonzero" node-id="272" stroke="none" target-height="21.90503" target-width="11.791992" target-x="631.052" target-y="921.526"></path></g></svg>